<svg id="eei86dod3gkg1" xmlns="http://www.w3.org/2000/svg" xmlns:xlink="http://www.w3.org/1999/xlink" viewBox="0 0 466 486" shape-rendering="geometricPrecision" text-rendering="geometricPrecision" width="466" height="486"><style><![CDATA[#eei86dod3gkg14_to {animation: eei86dod3gkg14_to__to 4000ms linear infinite normal forwards}@keyframes eei86dod3gkg14_to__to { 0% {transform: translate(329.000999px,66.981350px)} 50% {transform: translate(329.000999px,36.981350px)} 100% {transform: translate(329.000999px,66.981350px)} }#eei86dod3gkg38_to {animation: eei86dod3gkg38_to__to 4000ms linear infinite normal forwards}@keyframes eei86dod3gkg38_to__to { 0% {transform: translate(164.992497px,243.089493px)} 25% {transform: translate(143.994499px,257.089493px)} 50% {transform: translate(120.994499px,244.089493px)} 75% {transform: translate(144.994499px,229.089493px)} 100% {transform: translate(164.994499px,243.089493px)} }#eei86dod3gkg57_to {animation: eei86dod3gkg57_to__to 4000ms linear infinite normal forwards}@keyframes eei86dod3gkg57_to__to { 0% {transform: translate(118.919998px,419.785004px)} 50% {transform: translate(94.921312px,434.786635px)} 100% {transform: translate(94.921312px,434.786635px)} }#eei86dod3gkg57 {animation: eei86dod3gkg57_c_o 4000ms linear infinite normal forwards}@keyframes eei86dod3gkg57_c_o { 0% {opacity: 1} 45% {opacity: 1} 50% {opacity: 0} 100% {opacity: 0} }#eei86dod3gkg76_to {animation: eei86dod3gkg76_to__to 4000ms linear infinite normal forwards}@keyframes eei86dod3gkg76_to__to { 0% {transform: translate(177.001465px,404.341537px)} 100% {transform: translate(127.001465px,434.341537px)} }#eei86dod3gkg159_to {animation: eei86dod3gkg159_to__to 4000ms linear infinite normal forwards}@keyframes eei86dod3gkg159_to__to { 0% {transform: translate(345.676321px,324.513606px)} 25% {transform: translate(347.676321px,329.513606px)} 50% {transform: translate(346.009654px,325.846939px)} 75% {transform: translate(344.342987px,321.180272px)} 100% {transform: translate(345.676321px,324.513606px)} }]]></style><defs><linearGradient id="eei86dod3gkg11-fill" x1="329" y1="242" x2="329" y2="140" spreadMethod="pad" gradientUnits="userSpaceOnUse"><stop id="eei86dod3gkg11-fill-0" offset="0%" stop-color="rgba(255,255,255,0.9)"/><stop id="eei86dod3gkg11-fill-1" offset="100%" stop-color="rgba(255,255,255,0.6)"/></linearGradient><linearGradient id="eei86dod3gkg12-fill" x1="344.294000" y1="172.783000" x2="344.294000" y2="9.102270" spreadMethod="pad" gradientUnits="userSpaceOnUse"><stop id="eei86dod3gkg12-fill-0" offset="0%" stop-color="rgba(255,255,255,0.75)"/><stop id="eei86dod3gkg12-fill-1" offset="19.300000%" stop-color="rgba(255,255,255,0.531)"/><stop id="eei86dod3gkg12-fill-2" offset="38.700000%" stop-color="rgba(255,255,255,0.342)"/><stop id="eei86dod3gkg12-fill-3" offset="56.900000%" stop-color="rgba(255,255,255,0.193)"/><stop id="eei86dod3gkg12-fill-4" offset="73.800000%" stop-color="rgba(255,255,255,0.087)"/><stop id="eei86dod3gkg12-fill-5" offset="88.600000%" stop-color="rgba(255,255,255,0.023)"/><stop id="eei86dod3gkg12-fill-6" offset="100%" stop-color="rgba(255,255,255,0)"/></linearGradient><linearGradient id="eei86dod3gkg13-fill" x1="313.706000" y1="172.783000" x2="313.706000" y2="9.102270" spreadMethod="pad" gradientUnits="userSpaceOnUse"><stop id="eei86dod3gkg13-fill-0" offset="0%" stop-color="rgba(255,255,255,0.75)"/><stop id="eei86dod3gkg13-fill-1" offset="19.300000%" stop-color="rgba(255,255,255,0.531)"/><stop id="eei86dod3gkg13-fill-2" offset="38.700000%" stop-color="rgba(255,255,255,0.342)"/><stop id="eei86dod3gkg13-fill-3" offset="56.900000%" stop-color="rgba(255,255,255,0.193)"/><stop id="eei86dod3gkg13-fill-4" offset="73.800000%" stop-color="rgba(255,255,255,0.087)"/><stop id="eei86dod3gkg13-fill-5" offset="88.600000%" stop-color="rgba(255,255,255,0.023)"/><stop id="eei86dod3gkg13-fill-6" offset="100%" stop-color="rgba(255,255,255,0)"/></linearGradient><linearGradient id="eei86dod3gkg23-fill" x1="367.263000" y1="152.521000" x2="313.868000" y2="149.278000" spreadMethod="pad" gradientUnits="userSpaceOnUse"><stop id="eei86dod3gkg23-fill-0" offset="0%" stop-color="rgba(255,255,255,0.25)"/><stop id="eei86dod3gkg23-fill-1" offset="10.900000%" stop-color="rgba(255,255,255,0.163)"/><stop id="eei86dod3gkg23-fill-2" offset="24.100000%" stop-color="rgba(255,255,255,0.091)"/><stop id="eei86dod3gkg23-fill-3" offset="39.700000%" stop-color="rgba(255,255,255,0.039)"/><stop id="eei86dod3gkg23-fill-4" offset="59.800000%" stop-color="rgba(255,255,255,0.01)"/><stop id="eei86dod3gkg23-fill-5" offset="100%" stop-color="rgba(255,255,255,0)"/></linearGradient><linearGradient id="eei86dod3gkg24-fill" x1="346.089000" y1="158.535000" x2="394.957000" y2="154.297000" spreadMethod="pad" gradientUnits="userSpaceOnUse"><stop id="eei86dod3gkg24-fill-0" offset="0%" stop-color="rgba(255,255,255,0.25)"/><stop id="eei86dod3gkg24-fill-1" offset="10.900000%" stop-color="rgba(255,255,255,0.163)"/><stop id="eei86dod3gkg24-fill-2" offset="24.100000%" stop-color="rgba(255,255,255,0.091)"/><stop id="eei86dod3gkg24-fill-3" offset="39.700000%" stop-color="rgba(255,255,255,0.039)"/><stop id="eei86dod3gkg24-fill-4" offset="59.800000%" stop-color="rgba(255,255,255,0.01)"/><stop id="eei86dod3gkg24-fill-5" offset="100%" stop-color="rgba(255,255,255,0)"/></linearGradient><linearGradient id="eei86dod3gkg25-fill" x1="328.999000" y1="89.843100" x2="328.999000" y2="44.119600" spreadMethod="pad" gradientUnits="userSpaceOnUse"><stop id="eei86dod3gkg25-fill-0" offset="0%" stop-color="rgba(255,255,255,0.25)"/><stop id="eei86dod3gkg25-fill-1" offset="10.900000%" stop-color="rgba(255,255,255,0.163)"/><stop id="eei86dod3gkg25-fill-2" offset="24.100000%" stop-color="rgba(255,255,255,0.091)"/><stop id="eei86dod3gkg25-fill-3" offset="39.700000%" stop-color="rgba(255,255,255,0.039)"/><stop id="eei86dod3gkg25-fill-4" offset="59.800000%" stop-color="rgba(255,255,255,0.01)"/><stop id="eei86dod3gkg25-fill-5" offset="100%" stop-color="rgba(255,255,255,0)"/></linearGradient><linearGradient id="eei86dod3gkg26-fill" x1="242.091000" y1="158.535000" x2="290.960000" y2="154.296000" spreadMethod="pad" gradientUnits="userSpaceOnUse"><stop id="eei86dod3gkg26-fill-0" offset="0%" stop-color="rgba(255,255,255,0.25)"/><stop id="eei86dod3gkg26-fill-1" offset="10.900000%" stop-color="rgba(255,255,255,0.163)"/><stop id="eei86dod3gkg26-fill-2" offset="24.100000%" stop-color="rgba(255,255,255,0.091)"/><stop id="eei86dod3gkg26-fill-3" offset="39.700000%" stop-color="rgba(255,255,255,0.039)"/><stop id="eei86dod3gkg26-fill-4" offset="59.800000%" stop-color="rgba(255,255,255,0.01)"/><stop id="eei86dod3gkg26-fill-5" offset="100%" stop-color="rgba(255,255,255,0)"/></linearGradient><linearGradient id="eei86dod3gkg27-fill" x1="256.294000" y1="223.783000" x2="256.294000" y2="60.102300" spreadMethod="pad" gradientUnits="userSpaceOnUse"><stop id="eei86dod3gkg27-fill-0" offset="0%" stop-color="rgba(255,255,255,0.75)"/><stop id="eei86dod3gkg27-fill-1" offset="19.300000%" stop-color="rgba(255,255,255,0.531)"/><stop id="eei86dod3gkg27-fill-2" offset="38.700000%" stop-color="rgba(255,255,255,0.342)"/><stop id="eei86dod3gkg27-fill-3" offset="56.900000%" stop-color="rgba(255,255,255,0.193)"/><stop id="eei86dod3gkg27-fill-4" offset="73.800000%" stop-color="rgba(255,255,255,0.087)"/><stop id="eei86dod3gkg27-fill-5" offset="88.600000%" stop-color="rgba(255,255,255,0.023)"/><stop id="eei86dod3gkg27-fill-6" offset="100%" stop-color="rgba(255,255,255,0)"/></linearGradient><linearGradient id="eei86dod3gkg28-fill" x1="401.706000" y1="223.783000" x2="401.706000" y2="60.102300" spreadMethod="pad" gradientUnits="userSpaceOnUse"><stop id="eei86dod3gkg28-fill-0" offset="0%" stop-color="rgba(255,255,255,0.75)"/><stop id="eei86dod3gkg28-fill-1" offset="19.300000%" stop-color="rgba(255,255,255,0.531)"/><stop id="eei86dod3gkg28-fill-2" offset="38.700000%" stop-color="rgba(255,255,255,0.342)"/><stop id="eei86dod3gkg28-fill-3" offset="56.900000%" stop-color="rgba(255,255,255,0.193)"/><stop id="eei86dod3gkg28-fill-4" offset="73.800000%" stop-color="rgba(255,255,255,0.087)"/><stop id="eei86dod3gkg28-fill-5" offset="88.600000%" stop-color="rgba(255,255,255,0.023)"/><stop id="eei86dod3gkg28-fill-6" offset="100%" stop-color="rgba(255,255,255,0)"/></linearGradient><linearGradient id="eei86dod3gkg32-fill" x1="133.314000" y1="333.480000" x2="123.558000" y2="313.665000" spreadMethod="pad" gradientUnits="userSpaceOnUse"><stop id="eei86dod3gkg32-fill-0" offset="0%" stop-color="rgb(255,255,255)"/><stop id="eei86dod3gkg32-fill-1" offset="100%" stop-color="rgb(255,255,255)"/></linearGradient><linearGradient id="eei86dod3gkg33-fill" x1="75.076300" y1="332.555000" x2="86.138700" y2="313.218000" spreadMethod="pad" gradientUnits="userSpaceOnUse"><stop id="eei86dod3gkg33-fill-0" offset="0%" stop-color="rgb(255,255,255)"/><stop id="eei86dod3gkg33-fill-1" offset="100%" stop-color="rgb(255,255,255)"/></linearGradient><linearGradient id="eei86dod3gkg34-fill" x1="53.999800" y1="294.827000" x2="162.001000" y2="294.827000" spreadMethod="pad" gradientUnits="userSpaceOnUse"><stop id="eei86dod3gkg34-fill-0" offset="0%" stop-color="rgb(235,162,81)"/><stop id="eei86dod3gkg34-fill-1" offset="100%" stop-color="rgb(255,151,28)"/></linearGradient><linearGradient id="eei86dod3gkg35-fill" x1="80.185800" y1="275.518000" x2="108.203000" y2="324.327000" spreadMethod="pad" gradientUnits="userSpaceOnUse"><stop id="eei86dod3gkg35-fill-0" offset="0%" stop-color="rgb(255,197,133)"/><stop id="eei86dod3gkg35-fill-1" offset="94.386700%" stop-color="rgb(253,172,78)"/><stop id="eei86dod3gkg35-fill-2" offset="100%" stop-color="rgb(253,172,78)"/></linearGradient><linearGradient id="eei86dod3gkg44-fill" x1="1.000190" y1="286.714000" x2="215" y2="286.714000" spreadMethod="pad" gradientUnits="userSpaceOnUse"><stop id="eei86dod3gkg44-fill-0" offset="0%" stop-color="rgb(239,246,255)"/><stop id="eei86dod3gkg44-fill-1" offset="97.089400%" stop-color="rgb(252,251,251)"/><stop id="eei86dod3gkg44-fill-2" offset="100%" stop-color="rgb(252,251,251)"/></linearGradient><linearGradient id="eei86dod3gkg50-fill" x1="43" y1="169.574000" x2="172" y2="169.574000" spreadMethod="pad" gradientUnits="userSpaceOnUse"><stop id="eei86dod3gkg50-fill-0" offset="0%" stop-color="rgb(255,64,97)"/><stop id="eei86dod3gkg50-fill-1" offset="0.470773%" stop-color="rgb(255,64,97)"/><stop id="eei86dod3gkg50-fill-2" offset="100%" stop-color="rgb(255,151,73)"/></linearGradient><linearGradient id="eei86dod3gkg51-fill" x1="43" y1="166.010000" x2="172" y2="166.010000" spreadMethod="pad" gradientUnits="userSpaceOnUse"><stop id="eei86dod3gkg51-fill-0" offset="0%" stop-color="rgb(255,97,97)"/><stop id="eei86dod3gkg51-fill-1" offset="0.470773%" stop-color="rgb(255,97,97)"/><stop id="eei86dod3gkg51-fill-2" offset="100%" stop-color="rgb(255,174,73)"/></linearGradient><linearGradient id="eei86dod3gkg52-fill" x1="43" y1="157.990000" x2="172" y2="157.990000" spreadMethod="pad" gradientUnits="userSpaceOnUse"><stop id="eei86dod3gkg52-fill-0" offset="0%" stop-color="rgb(255,64,97)"/><stop id="eei86dod3gkg52-fill-1" offset="0.470773%" stop-color="rgb(255,64,97)"/><stop id="eei86dod3gkg52-fill-2" offset="100%" stop-color="rgb(255,151,73)"/></linearGradient><linearGradient id="eei86dod3gkg53-fill" x1="43" y1="154.426000" x2="172" y2="154.426000" spreadMethod="pad" gradientUnits="userSpaceOnUse"><stop id="eei86dod3gkg53-fill-0" offset="0%" stop-color="rgb(255,97,97)"/><stop id="eei86dod3gkg53-fill-1" offset="0.470773%" stop-color="rgb(255,97,97)"/><stop id="eei86dod3gkg53-fill-2" offset="100%" stop-color="rgb(255,174,73)"/></linearGradient><linearGradient id="eei86dod3gkg54-fill" x1="304.831000" y1="271.098000" x2="248.492000" y2="366.024000" spreadMethod="pad" gradientUnits="userSpaceOnUse"><stop id="eei86dod3gkg54-fill-0" offset="0%" stop-color="rgb(219,216,230)"/><stop id="eei86dod3gkg54-fill-1" offset="100%" stop-color="rgb(227,227,227)"/></linearGradient><linearGradient id="eei86dod3gkg55-fill" x1="209.434000" y1="361.269000" x2="270.326000" y2="366.789000" spreadMethod="pad" gradientUnits="userSpaceOnUse"><stop id="eei86dod3gkg55-fill-0" offset="0%" stop-color="rgb(204,204,204)"/><stop id="eei86dod3gkg55-fill-1" offset="100%" stop-color="rgb(156,156,156)"/></linearGradient><linearGradient id="eei86dod3gkg56-fill" x1="276" y1="327" x2="256.411000" y2="373.113000" spreadMethod="pad" gradientUnits="userSpaceOnUse"><stop id="eei86dod3gkg56-fill-0" offset="0%" stop-color="rgb(236,236,236)"/><stop id="eei86dod3gkg56-fill-1" offset="100%" stop-color="rgb(255,255,255)"/></linearGradient><linearGradient id="eei86dod3gkg153-fill" x1="304.831000" y1="271.098000" x2="248.492000" y2="366.024000" spreadMethod="pad" gradientUnits="userSpaceOnUse"><stop id="eei86dod3gkg153-fill-0" offset="0%" stop-color="rgb(219,216,230)"/><stop id="eei86dod3gkg153-fill-1" offset="100%" stop-color="rgb(227,227,227)"/></linearGradient><linearGradient id="eei86dod3gkg156-fill" x1="315" y1="296" x2="315" y2="364.750000" spreadMethod="pad" gradientUnits="userSpaceOnUse"><stop id="eei86dod3gkg156-fill-0" offset="0%" stop-color="rgb(255,255,255)"/><stop id="eei86dod3gkg156-fill-1" offset="100%" stop-color="rgb(255,255,255)"/></linearGradient><linearGradient id="eei86dod3gkg157-fill" x1="320.354000" y1="303.143000" x2="320.354000" y2="352.250000" spreadMethod="pad" gradientUnits="userSpaceOnUse"><stop id="eei86dod3gkg157-fill-0" offset="0%" stop-color="rgb(65,152,178)"/><stop id="eei86dod3gkg157-fill-1" offset="100%" stop-color="rgb(64,150,179)"/></linearGradient><linearGradient id="eei86dod3gkg158-fill" x1="326.405000" y1="319.450000" x2="341.827000" y2="350.515000" spreadMethod="pad" gradientUnits="userSpaceOnUse"><stop id="eei86dod3gkg158-fill-0" offset="0%" stop-color="rgb(255,255,255)"/><stop id="eei86dod3gkg158-fill-1" offset="100%" stop-color="rgb(240,149,154)"/></linearGradient><linearGradient id="eei86dod3gkg161-fill" x1="320.273000" y1="220.295000" x2="298.777000" y2="328.135000" spreadMethod="pad" gradientUnits="userSpaceOnUse"><stop id="eei86dod3gkg161-fill-0" offset="0%" stop-color="rgb(249,249,249)"/><stop id="eei86dod3gkg161-fill-1" offset="100%" stop-color="rgb(255,255,255)"/></linearGradient><linearGradient id="eei86dod3gkg162-fill" x1="232" y1="298.774000" x2="344" y2="298.774000" spreadMethod="pad" gradientUnits="userSpaceOnUse"><stop id="eei86dod3gkg162-fill-0" offset="0%" stop-color="rgb(255,97,97)"/><stop id="eei86dod3gkg162-fill-1" offset="100%" stop-color="rgb(241,208,160)"/></linearGradient><linearGradient id="eei86dod3gkg163-fill" x1="213.406000" y1="161" x2="213.406000" y2="325.125000" spreadMethod="pad" gradientUnits="userSpaceOnUse"><stop id="eei86dod3gkg163-fill-0" offset="0%" stop-color="rgba(255,255,255,0.01)"/><stop id="eei86dod3gkg163-fill-1" offset="35.158200%" stop-color="rgba(212,230,240,0.213822)"/><stop id="eei86dod3gkg163-fill-2" offset="100%" stop-color="rgb(53,92,185)"/></linearGradient><linearGradient id="eei86dod3gkg164-fill" x1="232.500000" y1="220.821000" x2="232.500000" y2="279.750000" spreadMethod="pad" gradientUnits="userSpaceOnUse"><stop id="eei86dod3gkg164-fill-0" offset="0%" stop-color="rgba(56,55,87,0.12)"/><stop id="eei86dod3gkg164-fill-1" offset="100%" stop-color="rgba(61,57,255,0.522946)"/></linearGradient></defs><path id="eei86dod3gkg2" d="M192,206L329,127L466,206L329,285L192,206Z" clip-rule="evenodd" fill="rgb(24,23,24)" fill-rule="evenodd" stroke="none" stroke-width="1"/><path id="eei86dod3gkg3" d="M329,298L466,219.372000L466,206L329,284.628000L329,298Z" clip-rule="evenodd" fill="rgb(52,49,53)" fill-rule="evenodd" stroke="none" stroke-width="1"/><path id="eei86dod3gkg4" d="M192,219.372000L329,298L329,284.628000L192,206L192,219.372000Z" clip-rule="evenodd" fill="rgb(61,56,62)" fill-rule="evenodd" stroke="none" stroke-width="1"/><path id="eei86dod3gkg5" d="M192,187.987000L329,109L466,187.987000L329,267L192,187.987000Z" clip-rule="evenodd" fill="rgb(71,65,71)" fill-rule="evenodd" stroke="none" stroke-width="1"/><path id="eei86dod3gkg6" d="M329,281.660000L466,202.673000L466,188L329,267L329,281.660000Z" clip-rule="evenodd" fill="rgb(52,49,53)" fill-rule="evenodd" stroke="none" stroke-width="1"/><path id="eei86dod3gkg7" d="M192,202.673000L329,281.660000L329,266.987000L192,188L192,202.673000Z" clip-rule="evenodd" fill="rgb(61,56,62)" fill-rule="evenodd" stroke="none" stroke-width="1"/><path id="eei86dod3gkg8" d="M435,187.484000L329,126L223,187.527000L329,249L435,187.484000Z" clip-rule="evenodd" fill="rgb(1,1,1)" fill-rule="evenodd" stroke="none" stroke-width="1"/><path id="eei86dod3gkg9" d="M429,191.003000L329,133L229,191.044000L329,249.038000L429,191.003000Z" clip-rule="evenodd" fill="rgb(58,58,58)" fill-rule="evenodd" stroke="none" stroke-width="1"/><g id="eei86dod3gkg10"><path id="eei86dod3gkg11" d="M329.001000,143.467000L246.983000,191.021000L328.999000,238.533000L411.017000,190.987000L329.001000,143.467000ZM329,140L241,191.022000L329,242L417,190.986000L329,140Z" clip-rule="evenodd" fill="url(#eei86dod3gkg11-fill)" fill-rule="evenodd" stroke="none" stroke-width="1"/></g><path id="eei86dod3gkg12" d="M417,50.999500L329,-0.000488L329,140L417,191L417,50.999500Z" clip-rule="evenodd" fill="url(#eei86dod3gkg12-fill)" fill-rule="evenodd" stroke="none" stroke-width="1"/><path id="eei86dod3gkg13" d="M241,50.999500L329,-0.000488L329,140L241,191L241,50.999500Z" clip-rule="evenodd" fill="url(#eei86dod3gkg13-fill)" fill-rule="evenodd" stroke="none" stroke-width="1"/><g id="eei86dod3gkg14_to" transform="translate(329.000999,66.981350)"><g id="eei86dod3gkg14" transform="translate(-329.000999,-66.981350)"><path id="eei86dod3gkg15" d="M328.999000,89.843000L355,74.601600L355,164.762000L328.999000,180.004000L328.999000,89.843000Z" clip-rule="evenodd" fill="rgb(43,123,188)" fill-rule="evenodd" stroke="none" stroke-width="1"/><path id="eei86dod3gkg16" d="M329.001000,180.004000L302.999000,164.762000L302.999000,74.601600L329.001000,89.843000L329.001000,180.004000Z" clip-rule="evenodd" fill="rgb(84,168,221)" fill-rule="evenodd" stroke="none" stroke-width="1"/><path id="eei86dod3gkg17" d="M380.998000,180.004000L355,164.762000L355,74.601600L380.998000,89.843000L380.998000,180.004000Z" clip-rule="evenodd" fill="rgb(246,185,74)" fill-rule="evenodd" stroke="none" stroke-width="1"/><path id="eei86dod3gkg18" d="M277.001000,89.844600L277.001000,180.004000L302.999000,164.762000L302.999000,74.601600L277.001000,89.843000L277.001000,89.844600Z" clip-rule="evenodd" fill="rgb(246,185,74)" fill-rule="evenodd" stroke="none" stroke-width="1"/><path id="eei86dod3gkg19" d="M251.001000,74.601600L251.001000,164.762000L277.001000,180.004000L277.001000,89.843000L251.001000,74.601600Z" clip-rule="evenodd" fill="rgb(84,168,221)" fill-rule="evenodd" stroke="none" stroke-width="1"/><path id="eei86dod3gkg20" d="M355.001000,164.763000L380.998000,180.004000L329.002000,210.486000L277.002000,180.004000L302.999000,164.763000L329,180.004000L355.001000,164.763000Z" clip-rule="evenodd" fill="rgb(240,171,58)" fill-rule="evenodd" stroke="none" stroke-width="1"/><path id="eei86dod3gkg21" d="M406.998000,74.601600L406.998000,164.762000L380.998000,180.004000L380.998000,89.843000L406.998000,74.601600Z" clip-rule="evenodd" fill="rgb(43,123,188)" fill-rule="evenodd" stroke="none" stroke-width="1"/><path id="eei86dod3gkg22" d="M355,74.601700L328.999000,89.843100L303,74.601700L277.002000,89.843100L251.003000,74.601700L303,44.119600L329,59.360200L355.001000,44.119600L407,74.601700L380.999000,89.843100L355,74.601700Z" clip-rule="evenodd" fill="rgb(53,144,205)" fill-rule="evenodd" stroke="none" stroke-width="1"/><path id="eei86dod3gkg23" d="M328.999000,89.843000L354.999000,74.601600L354.999000,164.762000L328.999000,180.004000L328.999000,89.843000Z" clip-rule="evenodd" fill="url(#eei86dod3gkg23-fill)" fill-rule="evenodd" stroke="none" stroke-width="1"/><path id="eei86dod3gkg24" d="M380.997000,180.004000L354.999000,164.762000L354.999000,74.601600L380.997000,89.843000L380.997000,180.004000Z" clip-rule="evenodd" fill="url(#eei86dod3gkg24-fill)" fill-rule="evenodd" stroke="none" stroke-width="1"/><path id="eei86dod3gkg25" d="M354.999000,74.601700L328.998000,89.843100L302.999000,74.601700L277.002000,89.843100L251.002000,74.601700L302.999000,44.119600L328.999000,59.360200L355.001000,44.119600L407,74.601700L380.998000,89.843100L354.999000,74.601700Z" clip-rule="evenodd" fill="url(#eei86dod3gkg25-fill)" fill-rule="evenodd" stroke="none" stroke-width="1"/><path id="eei86dod3gkg26" d="M251,74.601600L251,164.762000L277,180.004000L277,89.843000L251,74.601600Z" clip-rule="evenodd" fill="url(#eei86dod3gkg26-fill)" fill-rule="evenodd" stroke="none" stroke-width="1"/></g></g><path id="eei86dod3gkg27" d="M329,102L241,50.999500L241,191L329,242L329,102Z" clip-rule="evenodd" fill="url(#eei86dod3gkg27-fill)" fill-rule="evenodd" stroke="none" stroke-width="1"/><path id="eei86dod3gkg28" d="M329,102L417,50.999500L417,191L329,242L329,102Z" clip-rule="evenodd" fill="url(#eei86dod3gkg28-fill)" fill-rule="evenodd" stroke="none" stroke-width="1"/><path id="eei86dod3gkg29" d="M11,216.178000L11,322L3.000060,322L3,207L19.000200,207L19.000200,212C19.000200,212,19.000400,212,16.000200,212C13,212,11,213.053000,11,216.178000Z" fill="rgb(147,147,147)" stroke="none" stroke-width="1"/><path id="eei86dod3gkg30" d="M110.824000,132.500000L110.825000,265.403000L211.612000,321.339000L211.250000,208.013000C211.250000,208.013000,110.651000,135.276000,110.824000,132.500000Z" clip-rule="evenodd" fill="rgb(230,230,230)" fill-rule="evenodd" stroke="none" stroke-width="1"/><path id="eei86dod3gkg31" d="M3,318L108,257L213,318L108,379L3,318Z" clip-rule="evenodd" fill="rgb(211,211,213)" fill-rule="evenodd" stroke="none" stroke-width="1"/><path id="eei86dod3gkg32" d="M108,322.874000L108,350L162,319L162,293L108,322.874000Z" clip-rule="evenodd" fill="url(#eei86dod3gkg32-fill)" fill-rule="evenodd" stroke="none" stroke-width="1"/><path id="eei86dod3gkg33" d="M54,319L108,350L108,325.353000L54,294.085000L54,319Z" clip-rule="evenodd" fill="url(#eei86dod3gkg33-fill)" fill-rule="evenodd" stroke="none" stroke-width="1"/><path id="eei86dod3gkg34" d="M103.774000,264.849000L54,292L54,295.500000C54,296,54,296,55,296.500000L105,325.500000C108,327,108,327,111,325.500000L161,296.500000C162,296,162,296,162,295.500000L162,292.429000L112.226000,264.849000C111.057000,264.170000,109.527000,263.827000,107.996000,263.827000C106.466000,263.827000,104.943000,264.170000,103.774000,264.849000Z" clip-rule="evenodd" fill="url(#eei86dod3gkg34-fill)" fill-rule="evenodd" stroke="none" stroke-width="1"/><path id="eei86dod3gkg35" d="M104.500000,262L55,290.500000C54.231000,290.955000,53.999000,291.403000,54,292C54.001000,292.596000,54.233000,293.046000,55,293.500000L105,322.451000C108,324.200000,108,324.199000,111,322.451000L161,293.500000C161.767000,293.046000,161.999000,292.596000,162,292C162.001000,291.403000,161.769000,290.955000,161,290.500000L111.500000,262C110.333000,261.308000,109.531000,260.500000,108,260.500000C106.470000,260.500000,105.667000,261.308000,104.500000,262Z" clip-rule="evenodd" fill="url(#eei86dod3gkg35-fill)" fill-rule="evenodd" stroke="none" stroke-width="1"/><path id="eei86dod3gkg36" d="M107.713000,275L135,290L108.500000,305.500000L82,290L107.713000,275Z" clip-rule="evenodd" fill="none" fill-rule="evenodd" stroke="rgb(213,53,53)" stroke-width="16" stroke-linecap="round" stroke-linejoin="round"/><path id="eei86dod3gkg37" d="M108.500000,272L135,287L108.500000,302.500000L82,287L108.500000,272Z" clip-rule="evenodd" fill="none" fill-rule="evenodd" stroke="rgb(255,97,97)" stroke-width="16" stroke-linecap="round" stroke-linejoin="round"/><g id="eei86dod3gkg38_to" transform="translate(164.992497,243.089493)"><g id="eei86dod3gkg38" transform="translate(-168.994499,-237.089493)"><path id="eei86dod3gkg39" d="M123.912000,274.625000L133.564000,269.714000L143.546000,275.072000L134.621000,280.429000L123.912000,274.625000Z" clip-rule="evenodd" fill="rgb(58,58,58)" fill-rule="evenodd" stroke="none" stroke-width="1"/><path id="eei86dod3gkg40" d="M134.621000,280.428000L143.546000,275.071000L143.546000,282.214000L134.621000,287.571000L134.621000,280.428000Z" transform="matrix(1 0 0 1 0 -0.07100000000003)" clip-rule="evenodd" fill="rgb(62,62,62)" fill-rule="evenodd" stroke="none" stroke-width="1"/><path id="eei86dod3gkg41" d="M133.489000,273.179000C133.489000,261.500000,153,255.113000,170.785000,254.097000C198.500000,252.515000,204.500000,234,204.500000,201" fill="none" stroke="rgb(83,83,83)" stroke-width="4" stroke-linecap="round" stroke-linejoin="round"/><path id="eei86dod3gkg42" d="M123.912000,274.625000L134.621000,280.428000L134.621000,287.571000L123.912000,281.690000L123.912000,274.625000Z" transform="matrix(1 0 0 1 0 -0.06500000000000)" clip-rule="evenodd" fill="rgb(93,93,93)" fill-rule="evenodd" stroke="none" stroke-width="1"/><path id="eei86dod3gkg43" d="M135.489000,274.179000C135.489000,262.500000,155,256.113000,172.785000,255.097000C200.500000,253.515000,206.500000,235,206.500000,202" fill="none" stroke="rgb(0,0,0)" stroke-width="4" stroke-linecap="round" stroke-linejoin="round"/></g></g><path id="eei86dod3gkg44" d="M1,171.536000L1,340.536000C1.094420,341.601000,1.904890,342.657000,3.319500,343.473000L102.340000,400.573000C105.379000,402.325000,110.309000,402.334000,113.353000,400.591000L211.500000,343.999000C215,341.999000,215,341.999000,215,340.176000L215,321.445000L215,321.474000L215,171.536000L1,171.536000ZM7,317.239000L7,215.499000C7,210.999000,7,210.999000,13,214.499000L96,262.499000C102,265.999000,102,265.999000,102,269.999000L102,371.999000L7,317.239000ZM113,269.999000C113,265.974000,113,265.999000,119,262.499000L204.079000,213.321000C204.660000,212.990000,205.214000,212.814000,205.717000,212.772000C207.226000,212.646000,208,213.760000,208,215.766000L208,316.999000L113,371.999000L113,269.999000Z" fill="url(#eei86dod3gkg44-fill)" stroke="none" stroke-width="1"/><path id="eei86dod3gkg45" d="M102,231.499000L4.500000,174.999000C1.000440,172.999000,0.981067,172.999000,1.000380,171.499000C1.012450,170.562000,1,169.499000,4.500000,167.499000L102,111C107.500000,107.499000,107.500000,107.500000,113,111.001000L212.724000,168.436000C214.075000,169.215000,215.018000,169.499000,215,171.499000C214.987000,172.999000,215,172.999000,209,176.499000L113.318000,231.499000C108,234.999000,108,234.999000,102,231.499000Z" clip-rule="evenodd" fill="rgb(255,255,255)" fill-rule="evenodd" stroke="none" stroke-width="1"/><path id="eei86dod3gkg46" d="M32,198L70,219.900000L70,240L32,218.100000L32,198Z" fill="rgb(91,139,137)" stroke="none" stroke-width="1"/><path id="eei86dod3gkg47" d="M74.143300,232.163000C74.222400,233.357000,75.172800,234.720000,76.266100,235.207000C77.359400,235.693000,78.180600,235.119000,78.101600,233.925000C78.022400,232.731000,77.072800,231.368000,75.979500,230.881000C74.886200,230.395000,74.064200,230.968000,74.143300,232.163000Z" clip-rule="evenodd" fill="rgb(91,139,137)" fill-rule="evenodd" stroke="none" stroke-width="1"/><path id="eei86dod3gkg48" d="M74.143300,239.163000C74.222400,240.357000,75.172800,241.720000,76.266100,242.207000C77.359400,242.693000,78.180600,242.119000,78.101600,240.925000C78.022400,239.731000,77.072800,238.368000,75.979500,237.881000C74.886200,237.395000,74.064200,237.968000,74.143300,239.163000Z" clip-rule="evenodd" fill="rgb(91,139,137)" fill-rule="evenodd" stroke="none" stroke-width="1"/><path id="eei86dod3gkg49" d="M74.143300,225.163000C74.222400,226.357000,75.172800,227.720000,76.266100,228.207000C77.359400,228.693000,78.180600,228.119000,78.101600,226.925000C78.022400,225.731000,77.072800,224.368000,75.979500,223.881000C74.886200,223.395000,74.064200,223.968000,74.143300,225.163000Z" clip-rule="evenodd" fill="rgb(91,139,137)" fill-rule="evenodd" stroke="none" stroke-width="1"/><path id="eei86dod3gkg50" d="M43,165.994000L43,169.899000L107.500000,207L172,169.899000L172,165.994000L107.500000,132.149000L43,165.994000Z" clip-rule="evenodd" fill="url(#eei86dod3gkg50-fill)" fill-rule="evenodd" stroke="none" stroke-width="1"/><path id="eei86dod3gkg51" d="M43,166.335000L107.500000,203.436000L172,166.335000L107.500000,128.585000L43,166.335000Z" clip-rule="evenodd" fill="url(#eei86dod3gkg51-fill)" fill-rule="evenodd" stroke="none" stroke-width="1"/><path id="eei86dod3gkg52" d="M43,154.411000L43,158.315000L107.500000,195.416000L172,158.315000L172,154.411000C150.500000,143.128000,129,131.846000,107.500000,120.564000C86,131.846000,64.500000,143.128000,43,154.411000Z" clip-rule="evenodd" fill="url(#eei86dod3gkg52-fill)" fill-rule="evenodd" stroke="none" stroke-width="1"/><path id="eei86dod3gkg53" d="M43,154.752000L107.500000,191.852000L172,154.752000L107.500000,117L43,154.752000Z" clip-rule="evenodd" fill="url(#eei86dod3gkg53-fill)" fill-rule="evenodd" stroke="none" stroke-width="1"/><path id="eei86dod3gkg54" d="M374,263C374,281.500000,374,356.932000,374,356.932000C374,356.932000,375.404000,359.200000,352.598000,371.576000C329.791000,383.952000,302.917000,400.475000,302.917000,400.475000C302.917000,400.475000,287.713000,409.025000,272.509000,400.475000C257.304000,391.924000,205.864000,362.758000,205.864000,362.758000C205.864000,362.758000,202,360.778000,202,356.932000C202,353.085000,202,265.464000,202,265.464000C202,265.464000,202,266.155000,203.500000,267C205.312000,268.020000,205.078000,268.166000,210.054000,270.960000C215.633000,274.091000,234.494000,285.010000,275.448000,308.523000C279.633000,310.926000,285,310.999000,288,310.999000C291,310.999000,296.500000,310.744000,301.400000,307.952000C347.535000,281.673000,368.045000,269.620000,370.173000,268.290000C373.589000,266.153000,374,263.872000,374,263Z" clip-rule="evenodd" fill="url(#eei86dod3gkg54-fill)" fill-rule="evenodd" stroke="none" stroke-width="1"/><path id="eei86dod3gkg55" d="M219,352.196000L219,296L276,329L276,385L219,352.196000Z" clip-rule="evenodd" fill="url(#eei86dod3gkg55-fill)" fill-rule="evenodd" stroke="none" stroke-width="1"/><path id="eei86dod3gkg56" d="M276,384.852000L276,329L267.500000,324.150000L219,352L215.759000,350.286000L72.095900,433.453000C70.084300,434.618000,68.412900,435.812000,67.523200,437.263000C65.826400,440.033000,65.826800,443.060000,65.827200,445.130000L65.827200,445.180000C65.827400,447.564000,66.825600,449.719000,68.999800,451C127.826000,485.665000,129,485.600000,129,485.600000C128.067000,484.754000,126.810000,483.540000,126.810000,480.720000C126.810000,473.350000,132.534000,469.718000,133.653000,469.036000L278,386L276,384.852000Z" fill="url(#eei86dod3gkg56-fill)" stroke="none" stroke-width="1"/><g id="eei86dod3gkg57_to" transform="translate(118.919998,419.785004)"><g id="eei86dod3gkg57" transform="translate(-118.919998,-419.785004)"><path id="eei86dod3gkg58" d="M121.949000,422.297000C120.781000,423.033000,119.231000,422.333000,118.028000,420.481000C116.824000,418.628000,115.349000,417.697000,115.849000,417.347000C121.987000,413.046000,126.848000,410.197000,129.027000,413.551000C131.205000,416.906000,127.449000,418.833000,121.949000,422.297000Z" fill="rgb(255,136,133)" stroke="none" stroke-width="1"/><ellipse id="eei86dod3gkg59" rx="4" ry="2.500000" transform="matrix(0.86602500000000 0.50000000000000 -0.51189300000000 0.85904900000000 118.92000000000000 419.78500000000003)" fill="rgb(255,102,102)" stroke="none" stroke-width="1"/><path id="eei86dod3gkg60" d="M119.942000,420.117000C119.942000,420.117000,120.200000,420.082000,120.406000,420.425000C120.612000,420.768000,120.457000,420.974000,120.457000,420.974000L93.832200,436.476000L93.317200,435.619000L119.942000,420.117000Z" fill="rgb(142,142,142)" stroke="none" stroke-width="1"/><path id="eei86dod3gkg61" d="M117.194000,418.817000C117.194000,418.817000,117.452000,418.782000,117.658000,419.125000C117.864000,419.468000,117.710000,419.674000,117.710000,419.674000L91.084600,435.176000L90.569600,434.319000L117.194000,418.817000Z" fill="rgb(142,142,142)" stroke="none" stroke-width="1"/><ellipse id="eei86dod3gkg62" rx="0.500000" ry="0.238712" transform="matrix(0.51503800000000 0.85716700000000 -0.86418700000000 0.50317100000000 90.81250000000000 434.75599999999997)" fill="rgb(193,193,193)" stroke="none" stroke-width="1"/><path id="eei86dod3gkg63" d="M138.949000,432.297000C137.780000,433.033000,136.230000,432.333000,135.027000,430.481000C133.824000,428.628000,132.348000,427.697000,132.848000,427.347000C138.986000,423.046000,143.848000,420.197000,146.026000,423.551000C148.205000,426.906000,144.448000,428.833000,138.949000,432.297000Z" fill="rgb(194,255,115)" stroke="none" stroke-width="1"/><ellipse id="eei86dod3gkg64" rx="4" ry="2.500000" transform="matrix(0.86602500000000 0.50000000000000 -0.51189300000000 0.85904900000000 135.91900000000001 429.78500000000003)" fill="rgb(152,231,51)" stroke="none" stroke-width="1"/><ellipse id="eei86dod3gkg65" rx="0.500000" ry="0.238712" transform="matrix(0.51503800000000 0.85716700000000 -0.86418700000000 0.50317100000000 110.56000000000000 446.05599999999998)" fill="rgb(193,193,193)" stroke="none" stroke-width="1"/><path id="eei86dod3gkg66" d="M134.194000,428.817000C134.194000,428.817000,134.452000,428.782000,134.658000,429.125000C134.864000,429.468000,134.709000,429.674000,134.709000,429.674000L108.084000,445.176000L107.569000,444.319000L134.194000,428.817000Z" fill="rgb(142,142,142)" stroke="none" stroke-width="1"/><ellipse id="eei86dod3gkg67" rx="0.500000" ry="0.238712" transform="matrix(0.51503800000000 0.85716700000000 -0.86418700000000 0.50317100000000 107.81200000000000 444.75599999999997)" fill="rgb(193,193,193)" stroke="none" stroke-width="1"/><ellipse id="eei86dod3gkg68" rx="0.500000" ry="0.238712" transform="matrix(0.51503800000000 0.85716700000000 -0.86418700000000 0.50317100000000 93.56000000000000 436.05599999999998)" fill="rgb(193,193,193)" stroke="none" stroke-width="1"/><path id="eei86dod3gkg69" d="M155.949000,442.297000C154.780000,443.033000,153.230000,442.333000,152.027000,440.481000C150.824000,438.628000,149.348000,437.697000,149.848000,437.347000C155.986000,433.046000,160.848000,430.197000,163.026000,433.551000C165.205000,436.906000,161.448000,438.833000,155.949000,442.297000Z" fill="rgb(255,245,118)" stroke="none" stroke-width="1"/><ellipse id="eei86dod3gkg70" rx="4" ry="2.500000" transform="matrix(0.86602500000000 0.50000000000000 -0.51189300000000 0.85904900000000 152.91900000000001 439.78500000000003)" fill="rgb(255,229,77)" stroke="none" stroke-width="1"/><path id="eei86dod3gkg71" d="M153.942000,440.117000C153.942000,440.117000,154.199000,440.082000,154.405000,440.425000C154.611000,440.768000,154.457000,440.974000,154.457000,440.974000L127.832000,456.476000L127.317000,455.619000L153.942000,440.117000Z" fill="rgb(142,142,142)" stroke="none" stroke-width="1"/><path id="eei86dod3gkg72" d="M151.194000,438.817000C151.194000,438.817000,151.452000,438.782000,151.658000,439.125000C151.864000,439.468000,151.709000,439.674000,151.709000,439.674000L125.084000,455.176000L124.569000,454.319000L151.194000,438.817000Z" fill="rgb(142,142,142)" stroke="none" stroke-width="1"/><ellipse id="eei86dod3gkg73" rx="0.500000" ry="0.238712" transform="matrix(0.51503800000000 0.85716700000000 -0.86418700000000 0.50317100000000 127.56000000000000 456.05599999999998)" fill="rgb(193,193,193)" stroke="none" stroke-width="1"/><path id="eei86dod3gkg74" d="M136.942000,430.117000C136.942000,430.117000,137.199000,430.082000,137.405000,430.425000C137.611000,430.768000,137.457000,430.974000,137.457000,430.974000L110.832000,446.476000L110.317000,445.619000L136.942000,430.117000Z" fill="rgb(142,142,142)" stroke="none" stroke-width="1"/><ellipse id="eei86dod3gkg75" rx="0.500000" ry="0.238712" transform="matrix(0.51503800000000 0.85716700000000 -0.86418700000000 0.50317100000000 124.81200000000000 454.75599999999997)" fill="rgb(193,193,193)" stroke="none" stroke-width="1"/></g></g><g id="eei86dod3gkg76_to" transform="translate(177.001465,404.341537)"><g id="eei86dod3gkg76" transform="translate(-177.001465,-404.341537)"><g id="eei86dod3gkg77"><path id="eei86dod3gkg78" d="M171.949000,392.297000C170.781000,393.033000,169.231000,392.333000,168.028000,390.481000C166.824000,388.628000,165.349000,387.697000,165.849000,387.347000C171.987000,383.046000,176.848000,380.197000,179.027000,383.551000C181.205000,386.906000,177.449000,388.833000,171.949000,392.297000Z" fill="rgb(255,136,133)" stroke="none" stroke-width="1"/><ellipse id="eei86dod3gkg79" rx="4" ry="2.500000" transform="matrix(0.86602500000000 0.50000000000000 -0.51189300000000 0.85904900000000 168.91999999999999 389.78500000000003)" fill="rgb(255,102,102)" stroke="none" stroke-width="1"/><path id="eei86dod3gkg80" d="M169.942000,390.117000C169.942000,390.117000,170.200000,390.082000,170.406000,390.425000C170.612000,390.768000,170.457000,390.974000,170.457000,390.974000L143.832000,406.476000L143.317000,405.619000L169.942000,390.117000Z" fill="rgb(142,142,142)" stroke="none" stroke-width="1"/><ellipse id="eei86dod3gkg81" rx="0.500000" ry="0.238712" transform="matrix(0.51503800000000 0.85716700000000 -0.86418700000000 0.50317100000000 143.56000000000000 406.05599999999998)" fill="rgb(193,193,193)" stroke="none" stroke-width="1"/><path id="eei86dod3gkg82" d="M188.949000,402.297000C187.780000,403.033000,186.230000,402.333000,185.027000,400.481000C183.824000,398.628000,182.348000,397.697000,182.848000,397.347000C188.986000,393.046000,193.848000,390.197000,196.026000,393.551000C198.205000,396.906000,194.448000,398.833000,188.949000,402.297000Z" fill="rgb(194,255,115)" stroke="none" stroke-width="1"/><path id="eei86dod3gkg83" d="M167.194000,388.817000C167.194000,388.817000,167.452000,388.782000,167.658000,389.125000C167.864000,389.468000,167.710000,389.674000,167.710000,389.674000L141.085000,405.176000L140.570000,404.319000L167.194000,388.817000Z" fill="rgb(142,142,142)" stroke="none" stroke-width="1"/><ellipse id="eei86dod3gkg84" rx="0.500000" ry="0.238712" transform="matrix(0.51503800000000 0.85716700000000 -0.86418700000000 0.50317100000000 140.81200000000001 404.75599999999997)" fill="rgb(193,193,193)" stroke="none" stroke-width="1"/><ellipse id="eei86dod3gkg85" rx="4" ry="2.500000" transform="matrix(0.86602500000000 0.50000000000000 -0.51189300000000 0.85904900000000 185.91900000000001 399.78500000000003)" fill="rgb(152,231,51)" stroke="none" stroke-width="1"/><ellipse id="eei86dod3gkg86" rx="0.500000" ry="0.238712" transform="matrix(0.51503800000000 0.85716700000000 -0.86418700000000 0.50317100000000 160.56000000000000 416.05599999999998)" fill="rgb(193,193,193)" stroke="none" stroke-width="1"/><path id="eei86dod3gkg87" d="M184.194000,398.817000C184.194000,398.817000,184.452000,398.782000,184.658000,399.125000C184.864000,399.468000,184.709000,399.674000,184.709000,399.674000L158.084000,415.176000L157.569000,414.319000L184.194000,398.817000Z" fill="rgb(142,142,142)" stroke="none" stroke-width="1"/><path id="eei86dod3gkg88" d="M205.949000,412.297000C204.780000,413.033000,203.230000,412.333000,202.027000,410.481000C200.824000,408.628000,199.348000,407.697000,199.848000,407.347000C205.986000,403.046000,210.848000,400.197000,213.026000,403.551000C215.205000,406.906000,211.448000,408.833000,205.949000,412.297000Z" fill="rgb(255,245,118)" stroke="none" stroke-width="1"/><path id="eei86dod3gkg89" d="M186.942000,400.117000C186.942000,400.117000,187.199000,400.082000,187.405000,400.425000C187.611000,400.768000,187.457000,400.974000,187.457000,400.974000L160.832000,416.476000L160.317000,415.619000L186.942000,400.117000Z" fill="rgb(142,142,142)" stroke="none" stroke-width="1"/><ellipse id="eei86dod3gkg90" rx="4" ry="2.500000" transform="matrix(0.86602500000000 0.50000000000000 -0.51189300000000 0.85904900000000 202.91900000000001 409.78500000000003)" fill="rgb(255,229,77)" stroke="none" stroke-width="1"/><ellipse id="eei86dod3gkg91" rx="0.500000" ry="0.238712" transform="matrix(0.51503800000000 0.85716700000000 -0.86418700000000 0.50317100000000 157.81200000000001 414.75599999999997)" fill="rgb(193,193,193)" stroke="none" stroke-width="1"/><path id="eei86dod3gkg92" d="M203.942000,410.117000C203.942000,410.117000,204.199000,410.082000,204.405000,410.425000C204.611000,410.768000,204.457000,410.974000,204.457000,410.974000L177.832000,426.476000L177.317000,425.619000L203.942000,410.117000Z" fill="rgb(142,142,142)" stroke="none" stroke-width="1"/><path id="eei86dod3gkg93" d="M201.194000,408.817000C201.194000,408.817000,201.452000,408.782000,201.658000,409.125000C201.864000,409.468000,201.709000,409.674000,201.709000,409.674000L175.084000,425.176000L174.569000,424.319000L201.194000,408.817000Z" fill="rgb(142,142,142)" stroke="none" stroke-width="1"/><ellipse id="eei86dod3gkg94" rx="0.500000" ry="0.238712" transform="matrix(0.51503800000000 0.85716700000000 -0.86418700000000 0.50317100000000 174.81200000000001 424.75599999999997)" fill="rgb(193,193,193)" stroke="none" stroke-width="1"/><ellipse id="eei86dod3gkg95" rx="0.500000" ry="0.238712" transform="matrix(0.51503800000000 0.85716700000000 -0.86418700000000 0.50317100000000 177.56000000000000 426.05599999999998)" fill="rgb(193,193,193)" stroke="none" stroke-width="1"/></g><g id="eei86dod3gkg96"><path id="eei86dod3gkg97" d="M221.949000,362.297000C220.781000,363.033000,219.231000,362.333000,218.028000,360.481000C216.824000,358.628000,215.349000,357.697000,215.849000,357.347000C221.987000,353.046000,226.848000,350.197000,229.027000,353.551000C231.205000,356.906000,227.449000,358.833000,221.949000,362.297000Z" fill="rgb(255,136,133)" stroke="none" stroke-width="1"/><path id="eei86dod3gkg98" d="M238.949000,372.297000C237.780000,373.033000,236.230000,372.333000,235.027000,370.481000C233.824000,368.628000,232.348000,367.697000,232.848000,367.347000C238.986000,363.046000,243.848000,360.197000,246.026000,363.551000C248.205000,366.906000,244.448000,368.833000,238.949000,372.297000Z" fill="rgb(194,255,115)" stroke="none" stroke-width="1"/><path id="eei86dod3gkg99" d="M255.949000,382.297000C254.780000,383.033000,253.230000,382.333000,252.027000,380.481000C250.824000,378.628000,249.348000,377.697000,249.848000,377.347000C255.986000,373.046000,260.848000,370.197000,263.026000,373.551000C265.205000,376.906000,261.448000,378.833000,255.949000,382.297000Z" fill="rgb(255,245,118)" stroke="none" stroke-width="1"/><ellipse id="eei86dod3gkg100" rx="4" ry="2.500000" transform="matrix(0.86602500000000 0.50000000000000 -0.51189300000000 0.85904900000000 235.91900000000001 369.78500000000003)" fill="rgb(152,231,51)" stroke="none" stroke-width="1"/><ellipse id="eei86dod3gkg101" rx="4" ry="2.500000" transform="matrix(0.86602500000000 0.50000000000000 -0.51189300000000 0.85904900000000 218.91999999999999 359.78500000000003)" fill="rgb(255,102,102)" stroke="none" stroke-width="1"/><path id="eei86dod3gkg102" d="M219.942000,360.117000C219.942000,360.117000,220.200000,360.082000,220.406000,360.425000C220.612000,360.768000,220.457000,360.974000,220.457000,360.974000L193.832000,376.476000L193.317000,375.619000L219.942000,360.117000Z" fill="rgb(142,142,142)" stroke="none" stroke-width="1"/><ellipse id="eei86dod3gkg103" rx="0.500000" ry="0.238712" transform="matrix(0.51503800000000 0.85716700000000 -0.86418700000000 0.50317100000000 193.56000000000000 376.05599999999998)" fill="rgb(193,193,193)" stroke="none" stroke-width="1"/><ellipse id="eei86dod3gkg104" rx="0.500000" ry="0.238712" transform="matrix(0.51503800000000 0.85716700000000 -0.86418700000000 0.50317100000000 190.81200000000001 374.75599999999997)" fill="rgb(193,193,193)" stroke="none" stroke-width="1"/><path id="eei86dod3gkg105" d="M217.194000,358.817000C217.194000,358.817000,217.452000,358.782000,217.658000,359.125000C217.864000,359.468000,217.710000,359.674000,217.710000,359.674000L191.085000,375.176000L190.570000,374.319000L217.194000,358.817000Z" fill="rgb(142,142,142)" stroke="none" stroke-width="1"/><path id="eei86dod3gkg106" d="M236.942000,370.117000C236.942000,370.117000,237.199000,370.082000,237.405000,370.425000C237.611000,370.768000,237.457000,370.974000,237.457000,370.974000L210.832000,386.476000L210.317000,385.619000L236.942000,370.117000Z" fill="rgb(142,142,142)" stroke="none" stroke-width="1"/><ellipse id="eei86dod3gkg107" rx="0.500000" ry="0.238712" transform="matrix(0.51503800000000 0.85716700000000 -0.86418700000000 0.50317100000000 210.56000000000000 386.05599999999998)" fill="rgb(193,193,193)" stroke="none" stroke-width="1"/><path id="eei86dod3gkg108" d="M234.194000,368.817000C234.194000,368.817000,234.452000,368.782000,234.658000,369.125000C234.864000,369.468000,234.709000,369.674000,234.709000,369.674000L208.084000,385.176000L207.569000,384.319000L234.194000,368.817000Z" fill="rgb(142,142,142)" stroke="none" stroke-width="1"/><ellipse id="eei86dod3gkg109" rx="0.500000" ry="0.238712" transform="matrix(0.51503800000000 0.85716700000000 -0.86418700000000 0.50317100000000 207.81200000000001 384.75599999999997)" fill="rgb(193,193,193)" stroke="none" stroke-width="1"/><ellipse id="eei86dod3gkg110" rx="4" ry="2.500000" transform="matrix(0.86602500000000 0.50000000000000 -0.51189300000000 0.85904900000000 252.91900000000001 379.78500000000003)" fill="rgb(255,229,77)" stroke="none" stroke-width="1"/><path id="eei86dod3gkg111" d="M253.942000,380.117000C253.942000,380.117000,254.199000,380.082000,254.405000,380.425000C254.611000,380.768000,254.457000,380.974000,254.457000,380.974000L227.832000,396.476000L227.317000,395.619000L253.942000,380.117000Z" fill="rgb(142,142,142)" stroke="none" stroke-width="1"/><path id="eei86dod3gkg112" d="M251.194000,378.817000C251.194000,378.817000,251.452000,378.782000,251.658000,379.125000C251.864000,379.468000,251.709000,379.674000,251.709000,379.674000L225.084000,395.176000L224.569000,394.319000L251.194000,378.817000Z" fill="rgb(142,142,142)" stroke="none" stroke-width="1"/><ellipse id="eei86dod3gkg113" rx="0.500000" ry="0.238712" transform="matrix(0.51503800000000 0.85716700000000 -0.86418700000000 0.50317100000000 224.81200000000001 394.75599999999997)" fill="rgb(193,193,193)" stroke="none" stroke-width="1"/><ellipse id="eei86dod3gkg114" rx="0.500000" ry="0.238712" transform="matrix(0.51503800000000 0.85716700000000 -0.86418700000000 0.50317100000000 227.56000000000000 396.05599999999998)" fill="rgb(193,193,193)" stroke="none" stroke-width="1"/></g><g id="eei86dod3gkg115" transform="matrix(1 0 0 1 2 0)"><path id="eei86dod3gkg116" d="M319.949000,302.297000C318.781000,303.033000,317.231000,302.333000,316.028000,300.481000C314.824000,298.628000,313.349000,297.697000,313.849000,297.347000C319.987000,293.046000,324.848000,290.197000,327.027000,293.551000C329.205000,296.906000,325.449000,298.833000,319.949000,302.297000Z" fill="rgb(255,136,133)" stroke="none" stroke-width="1"/><ellipse id="eei86dod3gkg117" rx="4" ry="2.500000" transform="matrix(0.86602500000000 0.50000000000000 -0.51189300000000 0.85904900000000 316.92000000000002 299.78500000000003)" fill="rgb(255,102,102)" stroke="none" stroke-width="1"/><path id="eei86dod3gkg118" d="M317.942000,300.117000C317.942000,300.117000,318.200000,300.082000,318.406000,300.425000C318.612000,300.768000,318.457000,300.974000,318.457000,300.974000L291.832000,316.476000L291.317000,315.619000L317.942000,300.117000Z" fill="rgb(142,142,142)" stroke="none" stroke-width="1"/><ellipse id="eei86dod3gkg119" rx="0.500000" ry="0.238712" transform="matrix(0.51503800000000 0.85716700000000 -0.86418700000000 0.50317100000000 291.56000000000000 316.05599999999998)" fill="rgb(193,193,193)" stroke="none" stroke-width="1"/><path id="eei86dod3gkg120" d="M315.194000,298.817000C315.194000,298.817000,315.452000,298.782000,315.658000,299.125000C315.864000,299.468000,315.710000,299.674000,315.710000,299.674000L289.085000,315.176000L288.570000,314.319000L315.194000,298.817000Z" fill="rgb(142,142,142)" stroke="none" stroke-width="1"/><path id="eei86dod3gkg121" d="M336.949000,312.297000C335.780000,313.033000,334.230000,312.333000,333.027000,310.481000C331.824000,308.628000,330.348000,307.697000,330.848000,307.347000C336.986000,303.046000,341.848000,300.197000,344.026000,303.551000C346.205000,306.906000,342.448000,308.833000,336.949000,312.297000Z" fill="rgb(194,255,115)" stroke="none" stroke-width="1"/><ellipse id="eei86dod3gkg122" rx="4" ry="2.500000" transform="matrix(0.86602500000000 0.50000000000000 -0.51189300000000 0.85904900000000 333.91899999999998 309.78500000000003)" fill="rgb(152,231,51)" stroke="none" stroke-width="1"/><ellipse id="eei86dod3gkg123" rx="0.500000" ry="0.238712" transform="matrix(0.51503800000000 0.85716700000000 -0.86418700000000 0.50317100000000 308.56000000000000 326.05599999999998)" fill="rgb(193,193,193)" stroke="none" stroke-width="1"/><path id="eei86dod3gkg124" d="M332.194000,308.817000C332.194000,308.817000,332.452000,308.782000,332.658000,309.125000C332.864000,309.468000,332.709000,309.674000,332.709000,309.674000L306.084000,325.176000L305.569000,324.319000L332.194000,308.817000Z" fill="rgb(142,142,142)" stroke="none" stroke-width="1"/><path id="eei86dod3gkg125" d="M334.942000,310.117000C334.942000,310.117000,335.199000,310.082000,335.405000,310.425000C335.611000,310.768000,335.457000,310.974000,335.457000,310.974000L308.832000,326.476000L308.317000,325.619000L334.942000,310.117000Z" fill="rgb(142,142,142)" stroke="none" stroke-width="1"/><path id="eei86dod3gkg126" d="M353.949000,322.297000C352.780000,323.033000,351.230000,322.333000,350.027000,320.481000C348.824000,318.628000,347.348000,317.697000,347.848000,317.347000C353.986000,313.046000,358.848000,310.197000,361.026000,313.551000C363.205000,316.906000,359.448000,318.833000,353.949000,322.297000Z" fill="rgb(255,245,118)" stroke="none" stroke-width="1"/><ellipse id="eei86dod3gkg127" rx="0.500000" ry="0.238712" transform="matrix(0.51503800000000 0.85716700000000 -0.86418700000000 0.50317100000000 305.81200000000001 324.75599999999997)" fill="rgb(193,193,193)" stroke="none" stroke-width="1"/><ellipse id="eei86dod3gkg128" rx="4" ry="2.500000" transform="matrix(0.86602500000000 0.50000000000000 -0.51189300000000 0.85904900000000 350.91899999999998 319.78500000000003)" fill="rgb(255,229,77)" stroke="none" stroke-width="1"/><ellipse id="eei86dod3gkg129" rx="0.500000" ry="0.238712" transform="matrix(0.51503800000000 0.85716700000000 -0.86418700000000 0.50317100000000 325.56000000000000 336.05599999999998)" fill="rgb(193,193,193)" stroke="none" stroke-width="1"/><path id="eei86dod3gkg130" d="M349.194000,318.817000C349.194000,318.817000,349.452000,318.782000,349.658000,319.125000C349.864000,319.468000,349.709000,319.674000,349.709000,319.674000L323.084000,335.176000L322.569000,334.319000L349.194000,318.817000Z" fill="rgb(142,142,142)" stroke="none" stroke-width="1"/><path id="eei86dod3gkg131" d="M351.942000,320.117000C351.942000,320.117000,352.199000,320.082000,352.405000,320.425000C352.611000,320.768000,352.457000,320.974000,352.457000,320.974000L325.832000,336.476000L325.317000,335.619000L351.942000,320.117000Z" fill="rgb(142,142,142)" stroke="none" stroke-width="1"/><ellipse id="eei86dod3gkg132" rx="0.500000" ry="0.238712" transform="matrix(0.51503800000000 0.85716700000000 -0.86418700000000 0.50317100000000 322.81200000000001 334.75599999999997)" fill="rgb(193,193,193)" stroke="none" stroke-width="1"/><ellipse id="eei86dod3gkg133" rx="0.500000" ry="0.238712" transform="matrix(0.51503800000000 0.85716700000000 -0.86418700000000 0.50317100000000 288.81200000000001 314.75599999999997)" fill="rgb(193,193,193)" stroke="none" stroke-width="1"/></g><g id="eei86dod3gkg134"><path id="eei86dod3gkg135" d="M271.949000,332.297000C270.781000,333.033000,269.231000,332.333000,268.028000,330.481000C266.824000,328.628000,265.349000,327.697000,265.849000,327.347000C271.987000,323.046000,276.848000,320.197000,279.027000,323.551000C281.205000,326.906000,277.449000,328.833000,271.949000,332.297000Z" fill="rgb(255,136,133)" stroke="none" stroke-width="1"/><path id="eei86dod3gkg136" d="M305.949000,352.297000C304.780000,353.033000,303.230000,352.333000,302.027000,350.481000C300.824000,348.628000,299.348000,347.697000,299.848000,347.347000C305.986000,343.046000,310.848000,340.197000,313.026000,343.551000C315.205000,346.906000,311.448000,348.833000,305.949000,352.297000Z" fill="rgb(255,245,118)" stroke="none" stroke-width="1"/><path id="eei86dod3gkg137" d="M288.949000,342.297000C287.780000,343.033000,286.230000,342.333000,285.027000,340.481000C283.824000,338.628000,282.348000,337.697000,282.848000,337.347000C288.986000,333.046000,293.848000,330.197000,296.026000,333.551000C298.205000,336.906000,294.448000,338.833000,288.949000,342.297000Z" fill="rgb(194,255,115)" stroke="none" stroke-width="1"/><ellipse id="eei86dod3gkg138" rx="4" ry="2.500000" transform="matrix(0.86602500000000 0.50000000000000 -0.51189300000000 0.85904900000000 302.91899999999998 349.78500000000003)" fill="rgb(255,229,77)" stroke="none" stroke-width="1"/><ellipse id="eei86dod3gkg139" rx="4" ry="2.500000" transform="matrix(0.86602500000000 0.50000000000000 -0.51189300000000 0.85904900000000 268.92000000000002 329.78500000000003)" fill="rgb(255,102,102)" stroke="none" stroke-width="1"/><path id="eei86dod3gkg140" d="M269.942000,330.117000C269.942000,330.117000,270.200000,330.082000,270.406000,330.425000C270.612000,330.768000,270.457000,330.974000,270.457000,330.974000L243.832000,346.476000L243.317000,345.619000L269.942000,330.117000Z" fill="rgb(142,142,142)" stroke="none" stroke-width="1"/><ellipse id="eei86dod3gkg141" rx="0.500000" ry="0.238712" transform="matrix(0.51503800000000 0.85716700000000 -0.86418700000000 0.50317100000000 243.56000000000000 346.05599999999998)" fill="rgb(193,193,193)" stroke="none" stroke-width="1"/><path id="eei86dod3gkg142" d="M267.194000,328.817000C267.194000,328.817000,267.452000,328.782000,267.658000,329.125000C267.864000,329.468000,267.710000,329.674000,267.710000,329.674000L241.085000,345.176000L240.570000,344.319000L267.194000,328.817000Z" fill="rgb(142,142,142)" stroke="none" stroke-width="1"/><ellipse id="eei86dod3gkg143" rx="4" ry="2.500000" transform="matrix(0.86602500000000 0.50000000000000 -0.51189300000000 0.85904900000000 285.91899999999998 339.78500000000003)" fill="rgb(152,231,51)" stroke="none" stroke-width="1"/><ellipse id="eei86dod3gkg144" rx="0.500000" ry="0.238712" transform="matrix(0.51503800000000 0.85716700000000 -0.86418700000000 0.50317100000000 240.81200000000001 344.75599999999997)" fill="rgb(193,193,193)" stroke="none" stroke-width="1"/><path id="eei86dod3gkg145" d="M303.942000,350.117000C303.942000,350.117000,304.199000,350.082000,304.405000,350.425000C304.611000,350.768000,304.457000,350.974000,304.457000,350.974000L277.832000,366.476000L277.317000,365.619000L303.942000,350.117000Z" fill="rgb(142,142,142)" stroke="none" stroke-width="1"/><path id="eei86dod3gkg146" d="M286.942000,340.117000C286.942000,340.117000,287.199000,340.082000,287.405000,340.425000C287.611000,340.768000,287.457000,340.974000,287.457000,340.974000L260.832000,356.476000L260.317000,355.619000L286.942000,340.117000Z" fill="rgb(142,142,142)" stroke="none" stroke-width="1"/><ellipse id="eei86dod3gkg147" rx="0.500000" ry="0.238712" transform="matrix(0.51503800000000 0.85716700000000 -0.86418700000000 0.50317100000000 260.56000000000000 356.05599999999998)" fill="rgb(193,193,193)" stroke="none" stroke-width="1"/><path id="eei86dod3gkg148" d="M284.194000,338.817000C284.194000,338.817000,284.452000,338.782000,284.658000,339.125000C284.864000,339.468000,284.709000,339.674000,284.709000,339.674000L258.084000,355.176000L257.569000,354.319000L284.194000,338.817000Z" fill="rgb(142,142,142)" stroke="none" stroke-width="1"/><ellipse id="eei86dod3gkg149" rx="0.500000" ry="0.238712" transform="matrix(0.51503800000000 0.85716700000000 -0.86418700000000 0.50317100000000 277.56000000000000 366.05599999999998)" fill="rgb(193,193,193)" stroke="none" stroke-width="1"/><ellipse id="eei86dod3gkg150" rx="0.500000" ry="0.238712" transform="matrix(0.51503800000000 0.85716700000000 -0.86418700000000 0.50317100000000 257.81200000000001 354.75599999999997)" fill="rgb(193,193,193)" stroke="none" stroke-width="1"/><ellipse id="eei86dod3gkg151" rx="0.500000" ry="0.238712" transform="matrix(0.51503800000000 0.85716700000000 -0.86418700000000 0.50317100000000 274.81200000000001 364.75599999999997)" fill="rgb(193,193,193)" stroke="none" stroke-width="1"/><path id="eei86dod3gkg152" d="M301.194000,348.817000C301.194000,348.817000,301.452000,348.782000,301.658000,349.125000C301.864000,349.468000,301.709000,349.674000,301.709000,349.674000L275.084000,365.176000L274.569000,364.319000L301.194000,348.817000Z" fill="rgb(142,142,142)" stroke="none" stroke-width="1"/></g></g></g><path id="eei86dod3gkg153" d="M374,356.933000L374,263C374,265,373.589000,266.154000,370.173000,268.291000C368.045000,269.621000,347.535000,281.674000,301.400000,307.953000C296.500000,310.745000,291,311,288,311C287.750000,311,287.488000,311.002000,287.215000,311.004000C284.203000,311.024000,279.837000,311.053000,276,308.850000L267,323.880000C267,323.880000,267,323.880000,273.500000,327.500000L273.500000,383.500000L277,385.500000L136.339000,466.532000C135.622000,466.709000,134.808000,467.026000,133.887000,467.500000C128.010000,470.526000,126.513000,475.297000,126.513000,480.325000C126.513000,485.352000,129.950000,487.252000,133.670000,485.164000L276.568000,402.374000C290.305000,407.568000,302.917000,400.476000,302.917000,400.476000C302.917000,400.476000,329.791000,383.952000,352.598000,371.576000C375.404000,359.201000,374,356.933000,374,356.933000Z" fill="url(#eei86dod3gkg153-fill)" stroke="none" stroke-width="1"/><path id="eei86dod3gkg154" d="M315,392.645000L340.881000,407.607000L340.881000,364.349000L330.308000,358.089000L315,318.321000L315,392.645000Z" clip-rule="evenodd" fill="rgb(183,181,189)" fill-rule="evenodd" stroke="none" stroke-width="1"/><path id="eei86dod3gkg155" d="M340.881000,407.607000L380.149000,385.375000L380.149000,342.429000L340.881000,364.661000L340.881000,407.607000Z" clip-rule="evenodd" fill="rgb(241,241,241)" fill-rule="evenodd" stroke="none" stroke-width="1"/><path id="eei86dod3gkg156" d="M369.640000,335.492000L354.425000,296L315,318.238000L330.258000,357.729000L340.881000,364.750000L380.149000,342.489000L369.640000,335.492000Z" clip-rule="evenodd" fill="url(#eei86dod3gkg156-fill)" fill-rule="evenodd" stroke="none" stroke-width="1"/><path id="eei86dod3gkg157" d="M320.354000,322.713000L354.454000,303.143000L365.870000,333.189000L331.534000,352.250000L320.354000,322.713000Z" clip-rule="evenodd" fill="url(#eei86dod3gkg157-fill)" fill-opacity="0.64" fill-rule="evenodd" stroke="none" stroke-width="1"/><path id="eei86dod3gkg158" d="M322.140000,323.606000L356.239000,304.035000L367.655000,334.082000L333.319000,353.142000L322.140000,323.606000Z" clip-rule="evenodd" fill="url(#eei86dod3gkg158-fill)" fill-opacity="0.64" fill-rule="evenodd" stroke="none" stroke-width="1"/><g id="eei86dod3gkg159_to" transform="translate(345.676321,324.513606)"><path id="eei86dod3gkg159" d="M329.175167,345.395887L330.821118,336.950320L334.237014,337.748185L334.894994,329.023666L341.120806,333.864844L342.228772,331.336273L348.325588,333.864844L347.789604,322.967694C347.789604,322.967694,352.085474,325.915193,352.085474,325.091333C352.085474,324.267473,351.316497,315.935887,351.316497,315.935887L362.195167,329.127648L362.195167,325.091333" transform="translate(-346.681488,-328.589493)" fill="none" stroke="rgb(255,255,255)" stroke-width="1"/></g><path id="eei86dod3gkg160" d="M334.634000,351.357000L336.279000,342.910000L339.696000,343.709000L340.354000,334.982000L346.579000,339.824000L347.688000,337.295000L353.784000,339.824000L353.249000,328.926000C353.249000,328.926000,357.545000,331.873000,357.545000,331.049000C357.545000,330.225000,356.776000,321.893000,356.776000,321.893000L367.655000,333.301000" clip-rule="evenodd" fill="rgb(195,196,235)" fill-opacity="0.854021" fill-rule="evenodd" stroke="none" stroke-width="1"/><path id="eei86dod3gkg161" d="M303.389000,221.577000C293.942000,216.138000,282.297000,216.138000,272.850000,221.577000L204.687000,260.826000C201.104000,262.890000,201.104000,268.038000,204.687000,270.101000L272.850000,309.351000C282.297000,314.790000,293.942000,314.790000,303.389000,309.351000L370,271C373.500000,269,374,268,374,264.500000C374,263,373.235000,261.796000,371.552000,260.826000L303.389000,221.577000Z" clip-rule="evenodd" fill="url(#eei86dod3gkg161-fill)" fill-rule="evenodd" stroke="none" stroke-width="1"/><path id="eei86dod3gkg162" d="M232,264L288,296.500000L344,264L344,254L288,221.500000L232,254L232,264Z" clip-rule="evenodd" fill="url(#eei86dod3gkg162-fill)" fill-rule="evenodd" stroke="none" stroke-width="1"/><path id="eei86dod3gkg163" d="M232,161L232,254L288,286.500000L344,254L344,161L232,161Z" clip-rule="evenodd" fill="url(#eei86dod3gkg163-fill)" fill-rule="evenodd" stroke="none" stroke-width="1"/><path id="eei86dod3gkg164" d="M232,249L288,216.500000L344,249L288,281.500000L232,249Z" clip-rule="evenodd" fill="url(#eei86dod3gkg164-fill)" fill-rule="evenodd" stroke="none" stroke-width="1"/></svg>