<svg id="ee2rx6iv6f61" xmlns="http://www.w3.org/2000/svg" xmlns:xlink="http://www.w3.org/1999/xlink" viewBox="0 0 293 374" shape-rendering="geometricPrecision" text-rendering="geometricPrecision"><style><![CDATA[#ee2rx6iv6f625_to {animation: ee2rx6iv6f625_to__to 8000ms linear infinite normal forwards}@keyframes ee2rx6iv6f625_to__to { 0% {transform: translate(113.657000px,39.331551px)} 12.500000% {transform: translate(132.657000px,48.331551px)} 25% {transform: translate(125.657000px,58.331551px)} 37.500000% {transform: translate(119.657000px,48.831551px)} 50% {transform: translate(113.657000px,39.331551px)} 62.500000% {transform: translate(132.657000px,48.331551px)} 75% {transform: translate(125.657000px,58.331551px)} 87.500000% {transform: translate(119.657000px,48.831551px)} 100% {transform: translate(114px,39.331551px)} }#ee2rx6iv6f626_to {animation: ee2rx6iv6f626_to__to 8000ms linear infinite normal forwards}@keyframes ee2rx6iv6f626_to__to { 0% {transform: translate(123.555499px,124.007000px)} 18.750000% {transform: translate(143.555499px,113.689000px)} 33.750000% {transform: translate(138.555499px,132.689000px)} 50% {transform: translate(123.555499px,124.007000px)} 68.750000% {transform: translate(143.555499px,113.689000px)} 83.750000% {transform: translate(138.555499px,132.689000px)} 100% {transform: translate(123.555499px,124.007000px)} }#ee2rx6iv6f627_to {animation: ee2rx6iv6f627_to__to 8000ms linear infinite normal forwards}@keyframes ee2rx6iv6f627_to__to { 0% {transform: translate(219.415001px,44.858200px)} 18.750000% {transform: translate(199.975001px,40.094100px)} 38.750000% {transform: translate(204.975001px,59.094100px)} 50% {transform: translate(219.415001px,44.858200px)} 68.750000% {transform: translate(199.975001px,40.094100px)} 88.750000% {transform: translate(204.975001px,59.094100px)} 100% {transform: translate(218.975001px,44.858200px)} }#ee2rx6iv6f628_to {animation: ee2rx6iv6f628_to__to 8000ms linear infinite normal forwards}@keyframes ee2rx6iv6f628_to__to { 0% {transform: translate(178.756998px,103.856049px)} 18.750000% {transform: translate(161.756998px,75.870949px)} 33.750000% {transform: translate(182.756998px,100.870949px)} 50% {transform: translate(178.756998px,103.856049px)} 68.750000% {transform: translate(161.756998px,75.870949px)} 83.750000% {transform: translate(182.756998px,100.870949px)} 100% {transform: translate(179.072998px,103.856049px)} }#ee2rx6iv6f629_to {animation: ee2rx6iv6f629_to__to 8000ms linear infinite normal forwards}@keyframes ee2rx6iv6f629_to__to { 0% {transform: translate(193.086996px,95.856049px)} 12.500000% {transform: translate(207.756996px,89.870949px)} 25% {transform: translate(213.756996px,108.870949px)} 37.500000% {transform: translate(203.423496px,108.870949px)} 50% {transform: translate(193.086996px,95.856049px)} 62.500000% {transform: translate(207.756996px,89.870949px)} 75% {transform: translate(213.756996px,108.870949px)} 87.500000% {transform: translate(203.423496px,108.870949px)} 100% {transform: translate(193.089996px,95.856049px)} }#ee2rx6iv6f630_tr {animation: ee2rx6iv6f630_tr__tr 8000ms linear infinite normal forwards}@keyframes ee2rx6iv6f630_tr__tr { 0% {transform: translate(159.089996px,134.856003px) rotate(720deg)} 100% {transform: translate(159.089996px,134.856003px) rotate(360deg)} }#ee2rx6iv6f631_tr {animation: ee2rx6iv6f631_tr__tr 8000ms linear infinite normal forwards}@keyframes ee2rx6iv6f631_tr__tr { 0% {transform: translate(130.219002px,46.468550px) rotate(0deg)} 100% {transform: translate(130.219002px,46.468550px) rotate(1440deg)} }#ee2rx6iv6f632_to {animation: ee2rx6iv6f632_to__to 8000ms linear infinite normal forwards}@keyframes ee2rx6iv6f632_to__to { 0% {transform: translate(183.525505px,26.310350px)} 25% {transform: translate(153.525505px,46.310350px)} 50% {transform: translate(183.525505px,26.310350px)} 75% {transform: translate(153.525505px,46.310350px)} 100% {transform: translate(183.525505px,26.310350px)} }#ee2rx6iv6f633_to {animation: ee2rx6iv6f633_to__to 8000ms linear infinite normal forwards}@keyframes ee2rx6iv6f633_to__to { 0% {transform: translate(221.525505px,68.310350px)} 25% {transform: translate(221.525505px,117.483250px)} 50% {transform: translate(221.525505px,68.310350px)} 75% {transform: translate(221.525505px,117.483250px)} 100% {transform: translate(221.525505px,68.313250px)} }#ee2rx6iv6f634_tr {animation: ee2rx6iv6f634_tr__tr 8000ms linear infinite normal forwards}@keyframes ee2rx6iv6f634_tr__tr { 0% {transform: translate(196.642500px,67.910049px) rotate(0deg)} 100% {transform: translate(196.642500px,67.910049px) rotate(720deg)} }#ee2rx6iv6f635_to {animation: ee2rx6iv6f635_to__to 8000ms linear infinite normal forwards}@keyframes ee2rx6iv6f635_to__to { 0% {transform: translate(196.642500px,67.910049px)} 25% {transform: translate(186.644000px,107.910049px)} 75% {transform: translate(196.642500px,67.910049px)} 100% {transform: translate(186.644000px,107.910049px)} }#ee2rx6iv6f636_to {animation: ee2rx6iv6f636_to__to 8000ms linear infinite normal forwards}@keyframes ee2rx6iv6f636_to__to { 0% {transform: translate(176.832500px,107.942501px)} 13.750000% {transform: translate(195.832500px,128.778501px)} 31.250000% {transform: translate(180.832500px,143.778501px)} 50% {transform: translate(177.367500px,107.942501px)} 100% {transform: translate(177.367500px,107.942501px)} }#ee2rx6iv6f637_tr {animation: ee2rx6iv6f637_tr__tr 8000ms linear infinite normal forwards}@keyframes ee2rx6iv6f637_tr__tr { 0% {transform: translate(157.076004px,34.085299px) rotate(0deg)} 100% {transform: translate(157.076004px,34.085299px) rotate(1440deg)} }#ee2rx6iv6f638_tr {animation: ee2rx6iv6f638_tr__tr 8000ms linear infinite normal forwards}@keyframes ee2rx6iv6f638_tr__tr { 0% {transform: translate(214.427002px,37.024250px) rotate(0deg)} 100% {transform: translate(214.427002px,37.024250px) rotate(720deg)} }#ee2rx6iv6f639_to {animation: ee2rx6iv6f639_to__to 8000ms linear infinite normal forwards}@keyframes ee2rx6iv6f639_to__to { 0% {transform: translate(158.447999px,100.381500px)} 25% {transform: translate(129.447999px,84.477500px)} 50% {transform: translate(158.447999px,100.381500px)} 75% {transform: translate(129.447999px,84.477500px)} 100% {transform: translate(158.931999px,100.381500px)} }#ee2rx6iv6f640_tr {animation: ee2rx6iv6f640_tr__tr 8000ms linear infinite normal forwards}@keyframes ee2rx6iv6f640_tr__tr { 0% {transform: translate(176.706001px,47.060799px) rotate(0deg)} 100% {transform: translate(176.706001px,47.060799px) rotate(360deg)} }#ee2rx6iv6f641_tr {animation: ee2rx6iv6f641_tr__tr 8000ms linear infinite normal forwards}@keyframes ee2rx6iv6f641_tr__tr { 0% {transform: translate(178.077995px,260.613007px) rotate(0deg)} 100% {transform: translate(178.077995px,260.613007px) rotate(360deg)} }#ee2rx6iv6f646_tr {animation: ee2rx6iv6f646_tr__tr 8000ms linear infinite normal forwards}@keyframes ee2rx6iv6f646_tr__tr { 0% {transform: translate(170px,263.500000px) rotate(0deg)} 100% {transform: translate(170px,263.500000px) rotate(720deg)} }]]></style><defs><filter id="ee2rx6iv6f62-filter" x="-400%" width="600%" y="-400%" height="600%"><feGaussianBlur id="ee2rx6iv6f62-filter-drop-shadow-0-blur" in="SourceAlpha" stdDeviation="5,5"/><feOffset id="ee2rx6iv6f62-filter-drop-shadow-0-offset" dx="0" dy="4" result="tmp"/><feFlood id="ee2rx6iv6f62-filter-drop-shadow-0-flood" flood-color="rgba(0,0,0,0.25)"/><feComposite id="ee2rx6iv6f62-filter-drop-shadow-0-composite" operator="in" in2="tmp"/><feMerge id="ee2rx6iv6f62-filter-drop-shadow-0-merge"><feMergeNode id="ee2rx6iv6f62-filter-drop-shadow-0-merge-node-1"/><feMergeNode id="ee2rx6iv6f62-filter-drop-shadow-0-merge-node-2" in="SourceGraphic"/></feMerge></filter><linearGradient id="ee2rx6iv6f64-fill" x1="91.313500" y1="279.980000" x2="81.558500" y2="260.165000" spreadMethod="pad" gradientUnits="userSpaceOnUse"><stop id="ee2rx6iv6f64-fill-0" offset="0%" stop-color="rgb(255,255,255)"/><stop id="ee2rx6iv6f64-fill-1" offset="100%" stop-color="rgb(255,255,255)"/></linearGradient><linearGradient id="ee2rx6iv6f65-fill" x1="33.076300" y1="279.055000" x2="44.138700" y2="259.718000" spreadMethod="pad" gradientUnits="userSpaceOnUse"><stop id="ee2rx6iv6f65-fill-0" offset="0%" stop-color="rgb(255,255,255)"/><stop id="ee2rx6iv6f65-fill-1" offset="100%" stop-color="rgb(255,255,255)"/></linearGradient><linearGradient id="ee2rx6iv6f66-fill" x1="11.999800" y1="241.327000" x2="120.001000" y2="241.327000" spreadMethod="pad" gradientUnits="userSpaceOnUse"><stop id="ee2rx6iv6f66-fill-0" offset="0%" stop-color="rgb(206,156,170)"/><stop id="ee2rx6iv6f66-fill-1" offset="100%" stop-color="rgb(240,149,154)"/></linearGradient><linearGradient id="ee2rx6iv6f67-fill" x1="38.185800" y1="222.018000" x2="66.203300" y2="270.827000" spreadMethod="pad" gradientUnits="userSpaceOnUse"><stop id="ee2rx6iv6f67-fill-0" offset="0%" stop-color="rgb(255,142,162)"/><stop id="ee2rx6iv6f67-fill-1" offset="100%" stop-color="rgb(218,209,233)"/></linearGradient><linearGradient id="ee2rx6iv6f615-fill" x1="66.002100" y1="242.339000" x2="280.002000" y2="242.339000" spreadMethod="pad" gradientUnits="userSpaceOnUse"><stop id="ee2rx6iv6f615-fill-0" offset="0%" stop-color="rgb(218,209,233)"/><stop id="ee2rx6iv6f615-fill-1" offset="97.089400%" stop-color="rgb(252,251,251)"/><stop id="ee2rx6iv6f615-fill-2" offset="100%" stop-color="rgb(252,251,251)"/></linearGradient><linearGradient id="ee2rx6iv6f618-fill" x1="96" y1="124.500000" x2="243" y2="124.500000" spreadMethod="pad" gradientUnits="userSpaceOnUse"><stop id="ee2rx6iv6f618-fill-0" offset="0%" stop-color="rgb(218,209,233)"/><stop id="ee2rx6iv6f618-fill-1" offset="0.470773%" stop-color="rgb(242,190,148)"/><stop id="ee2rx6iv6f618-fill-2" offset="100%" stop-color="rgb(218,209,233)"/></linearGradient><linearGradient id="ee2rx6iv6f619-fill" x1="172" y1="222.500000" x2="172.250000" y2="327.500000" spreadMethod="pad" gradientUnits="userSpaceOnUse"><stop id="ee2rx6iv6f619-fill-0" offset="0%" stop-color="rgb(18,191,255)"/><stop id="ee2rx6iv6f619-fill-1" offset="100%" stop-color="rgba(18,191,255,0.25)"/></linearGradient><linearGradient id="ee2rx6iv6f620-fill" x1="84.915900" y1="22.999900" x2="84.915900" y2="204.780000" spreadMethod="pad" gradientUnits="userSpaceOnUse"><stop id="ee2rx6iv6f620-fill-0" offset="0%" stop-color="rgba(255,255,255,0.01)"/><stop id="ee2rx6iv6f620-fill-1" offset="65.074900%" stop-color="rgb(218,209,233)"/><stop id="ee2rx6iv6f620-fill-2" offset="100%" stop-color="rgb(218,209,233)"/></linearGradient><radialGradient id="ee2rx6iv6f642-fill" cx="0" cy="0" r="1" spreadMethod="pad" gradientUnits="userSpaceOnUse" gradientTransform="matrix(24.33640000000000 30.04250000000000 -30.04250000000000 24.33640000000000 174.37899999999999 260.37900000000002)"><stop id="ee2rx6iv6f642-fill-0" offset="0%" stop-color="rgb(253,229,65)"/><stop id="ee2rx6iv6f642-fill-1" offset="100%" stop-color="rgba(255,245,181,0.56)"/></radialGradient></defs><g id="ee2rx6iv6f62" filter="url(#ee2rx6iv6f62-filter)"><g id="ee2rx6iv6f63"><path id="ee2rx6iv6f64" d="M66,269.374000L66,296.500000L120,265.500000L120,239.500000L66,269.374000Z" clip-rule="evenodd" fill="url(#ee2rx6iv6f64-fill)" fill-rule="evenodd" stroke="none" stroke-width="1"/><path id="ee2rx6iv6f65" d="M12,265.500000L66,296.500000L66,271.853000L12,240.585000L12,265.500000Z" clip-rule="evenodd" fill="url(#ee2rx6iv6f65-fill)" fill-rule="evenodd" stroke="none" stroke-width="1"/><path id="ee2rx6iv6f66" d="M61.774400,211.349000L12,238.500000L12,242C12,242.500000,12,242.500000,13,243L63,272C66,273.500000,66,273.500000,69,272L119,243C120,242.500000,120,242.500000,120,242L120,238.929000L70.225600,211.349000C69.057400,210.670000,67.526500,210.327000,65.995600,210.327000C64.465600,210.327000,62.943500,210.670000,61.774400,211.349000Z" clip-rule="evenodd" fill="url(#ee2rx6iv6f66-fill)" fill-rule="evenodd" stroke="none" stroke-width="1"/><path id="ee2rx6iv6f67" d="M62.500000,208.500000L13,237C12.231000,237.455000,11.999000,237.903000,12,238.500000C12.001000,239.096000,12.233000,239.546000,13,240L63,268.951000C66,270.700000,66,270.699000,69,268.951000L119,240C119.767000,239.546000,119.999000,239.096000,120,238.500000C120.001000,237.903000,119.769000,237.455000,119,237L69.500000,208.500000C68.332700,207.808000,67.530700,207,66,207C64.470100,207,63.667300,207.808000,62.500000,208.500000Z" clip-rule="evenodd" fill="url(#ee2rx6iv6f67-fill)" fill-rule="evenodd" stroke="none" stroke-width="1"/><path id="ee2rx6iv6f68" d="M76.002000,171.803000L76.002000,277.625000L68.002000,277.625000L68.002000,162.625000L84.002200,162.625000L84.002200,167.625000C84.002200,167.625000,84.002400,167.625000,81.002200,167.625000C78.002000,167.625000,76.002000,168.678000,76.002000,171.803000Z" fill="rgb(147,147,147)" stroke="none" stroke-width="1"/><path id="ee2rx6iv6f69" d="M175.826000,88.125500L175.827000,221.028000L276.614000,276.965000L276.252000,163.638000C276.252000,163.638000,175.653000,90.901300,175.826000,88.125500Z" clip-rule="evenodd" fill="rgb(230,230,230)" fill-rule="evenodd" stroke="none" stroke-width="1"/><path id="ee2rx6iv6f610" d="M68.002000,273.625000L173.002000,212.625000L278.002000,273.625000L173.002000,334.625000L68.002000,273.625000Z" clip-rule="evenodd" fill="rgb(211,211,213)" fill-rule="evenodd" stroke="none" stroke-width="1"/><path id="ee2rx6iv6f611" d="M97.002000,153.625000L135.002000,175.525000L135.002000,195.625000L97.002000,173.725000L97.002000,153.625000Z" fill="rgb(91,139,137)" stroke="none" stroke-width="1"/><path id="ee2rx6iv6f612" d="M139.145000,187.788000C139.224000,188.982000,140.175000,190.345000,141.268000,190.832000C142.361000,191.318000,143.183000,190.744000,143.104000,189.550000C143.024000,188.356000,142.075000,186.993000,140.981000,186.506000C139.888000,186.020000,139.066000,186.593000,139.145000,187.788000Z" clip-rule="evenodd" fill="rgb(91,139,137)" fill-rule="evenodd" stroke="none" stroke-width="1"/><path id="ee2rx6iv6f613" d="M139.145000,194.788000C139.224000,195.982000,140.175000,197.345000,141.268000,197.832000C142.361000,198.318000,143.183000,197.744000,143.104000,196.550000C143.024000,195.356000,142.075000,193.993000,140.981000,193.506000C139.888000,193.020000,139.066000,193.593000,139.145000,194.788000Z" clip-rule="evenodd" fill="rgb(91,139,137)" fill-rule="evenodd" stroke="none" stroke-width="1"/><path id="ee2rx6iv6f614" d="M139.145000,180.788000C139.224000,181.982000,140.175000,183.345000,141.268000,183.832000C142.361000,184.318000,143.183000,183.744000,143.104000,182.550000C143.024000,181.356000,142.075000,179.993000,140.981000,179.506000C139.888000,179.020000,139.066000,179.593000,139.145000,180.788000Z" clip-rule="evenodd" fill="rgb(91,139,137)" fill-rule="evenodd" stroke="none" stroke-width="1"/><path id="ee2rx6iv6f615" d="M66.002000,127.160000L66.002000,135.450000L66.002000,296.151000L66.002000,296.161000C66.096400,297.226000,66.906800,298.281000,68.321500,299.098000L167.342000,356.198000C170.381000,357.950000,175.311000,357.959000,178.355000,356.215000L276.502000,299.624000C280.002000,297.624000,280.002000,297.624000,280.002000,295.800000L280.002000,277.070000L280.002000,277.098000L280.002000,135.100000L280.002000,127.160000L66.002000,127.160000ZM72.002000,272.863000L72.002000,171.124000C72.002000,166.624000,72.002000,166.624000,78.002000,170.124000L161.002000,218.124000C172.500000,224,172.500000,223.500000,172.500000,227.500000L172.500000,327.624000L72.002000,272.863000ZM172.500000,227.500000C172.500000,223.475000,171.666000,225,184.002000,218.124000C196.338000,211.248000,269.081000,168.946000,269.081000,168.946000C269.662000,168.615000,270.216000,168.439000,270.719000,168.397000C272.228000,168.271000,273.002000,169.384000,273.002000,171.390000L273.002000,272.624000L172.500000,327.624000L172.500000,227.500000Z" fill="url(#ee2rx6iv6f615-fill)" stroke="none" stroke-width="1"/><path id="ee2rx6iv6f616" d="M172,224L168.500000,222L170,227L175,226.500000L180,220.500000L172,224Z" fill="rgb(211,211,213)" stroke="none" stroke-width="1"/><path id="ee2rx6iv6f617" d="M167.002000,187.124000L69.502000,130.624000C66.002400,128.624000,65.983000,128.624000,66.002300,127.124000C66.014400,126.187000,66.002000,125.124000,69.502000,123.124000L167.002000,66.625000C172.502000,63.124000,172.502000,63.125000,178.002000,66.626000L277.726000,124.061000C279.077000,124.840000,280.020000,125.124000,280.002000,127.124000C279.989000,128.624000,280.002000,128.624000,274.002000,132.124000L178.319000,187.124000C173.002000,190.624000,173.002000,190.624000,167.002000,187.124000Z" clip-rule="evenodd" fill="rgb(255,255,255)" fill-rule="evenodd" stroke="none" stroke-width="1"/><path id="ee2rx6iv6f618" d="M96,124.871000L169.500000,167L243,124.871000L169.500000,82L96,124.871000Z" clip-rule="evenodd" fill="url(#ee2rx6iv6f618-fill)" fill-rule="evenodd" stroke="none" stroke-width="1"/></g><path id="ee2rx6iv6f619" d="M172.500000,225L76.500000,169.500000L71.500000,167.500000L71.500000,272L171.500000,327.500000L273,272L272.016000,170.199000C272.009000,169.437000,271.186000,168.962000,270.523000,169.339000L172.500000,225Z" fill="url(#ee2rx6iv6f619-fill)" fill-opacity="0.17" stroke="none" stroke-width="1"/><path id="ee2rx6iv6f620" d="M106,0L106,126.004000L169.500000,162L233,126.004000L233,0L106,0Z" clip-rule="evenodd" fill="url(#ee2rx6iv6f620-fill)" fill-rule="evenodd" stroke="none" stroke-width="1"/><path id="ee2rx6iv6f621" d="M27,255L45.759500,265.861000L45.759500,281L27,270.468000L27,255Z" fill="rgb(71,65,71)" stroke="none" stroke-width="1"/><path id="ee2rx6iv6f622" d="M49.833200,271.032000L51.333000,275.032000L48.057100,273.562000L49.833200,271.032000Z" fill="rgb(39,22,72)" stroke="none" stroke-width="1"/><path id="ee2rx6iv6f623" d="M49.431000,279.044000L48.000100,275.019000L51.250300,276.545000L49.431000,279.044000Z" fill="rgb(39,22,72)" stroke="none" stroke-width="1"/></g><g id="ee2rx6iv6f624"><g id="ee2rx6iv6f625_to" transform="translate(113.657000,39.331551)"><path id="ee2rx6iv6f625" d="M114,33L115.572000,37.836900L120.657000,37.836900L116.543000,40.826200L118.114000,45.663100L114,42.673800L109.886000,45.663100L111.457000,40.826200L107.343000,37.836900L112.428000,37.836900L114,33Z" transform="translate(-114,-39.331551)" fill="rgb(253,229,65)" stroke="none" stroke-width="1"/></g><g id="ee2rx6iv6f626_to" transform="translate(123.555499,124.007000)"><path id="ee2rx6iv6f626" d="M130.173000,118.318000L129.813000,122.664000L133.836000,124.348000L129.592000,125.350000L129.232000,129.696000L126.969000,125.969000L122.725000,126.970000L125.570000,123.665000L123.306000,119.939000L127.328000,121.623000L130.173000,118.318000Z" transform="translate(-128.280499,-124.007000)" fill="rgb(253,229,65)" stroke="none" stroke-width="1"/></g><g id="ee2rx6iv6f627_to" transform="translate(219.415001,44.858200)"><path id="ee2rx6iv6f627" d="M221.110000,39.764100L220.788000,43.655600L224.390000,45.164000L220.589000,46.060800L220.268000,49.952300L218.241000,46.615000L214.440000,47.511700L216.988000,44.552400L214.960000,41.215000L218.562000,42.723400L221.110000,39.764100Z" transform="translate(-219.415001,-44.858200)" fill="rgb(253,229,65)" stroke="none" stroke-width="1"/></g><g id="ee2rx6iv6f628_to" transform="translate(178.756998,103.856049)"><path id="ee2rx6iv6f628" d="M180.693000,98.985100L180.386000,102.706000L183.830000,104.148000L180.196000,105.006000L179.888000,108.727000L177.950000,105.536000L174.316000,106.393000L176.752000,103.564000L174.813000,100.372000L178.257000,101.815000L180.693000,98.985100Z" transform="translate(-179.072998,-103.856049)" fill="rgb(253,229,65)" stroke="none" stroke-width="1"/></g><g id="ee2rx6iv6f629_to" transform="translate(193.086996,95.856049)"><path id="ee2rx6iv6f629" d="M194.710000,90.985100L194.403000,94.706100L197.847000,96.148300L194.213000,97.005800L193.905000,100.727000L191.967000,97.535700L188.333000,98.393100L190.769000,95.563500L188.831000,92.372500L192.274000,93.814700L194.710000,90.985100Z" transform="translate(-193.089996,-95.856049)" fill="rgb(255,255,255)" stroke="none" stroke-width="1"/></g><g id="ee2rx6iv6f630_tr" transform="translate(159.089996,134.856003) rotate(720)"><path id="ee2rx6iv6f630" d="M160.710000,129.985000L160.403000,133.706000L163.847000,135.148000L160.213000,136.006000L159.905000,139.727000L157.967000,136.536000L154.333000,137.393000L156.769000,134.564000L154.831000,131.372000L158.274000,132.815000L160.710000,129.985000Z" transform="translate(-159.089996,-134.856003)" fill="rgb(255,255,255)" stroke="none" stroke-width="1"/></g><g id="ee2rx6iv6f631_tr" transform="translate(130.219002,46.468550) rotate(0)"><path id="ee2rx6iv6f631" d="M131.711000,41.985300L131.428000,45.410200L134.597000,46.737700L131.253000,47.526900L130.970000,50.951800L129.185000,48.014600L125.841000,48.803800L128.083000,46.199400L126.299000,43.262300L129.468000,44.589800L131.711000,41.985300Z" transform="translate(-130.219002,-46.468550)" fill="rgb(255,255,255)" stroke="none" stroke-width="1"/></g><g id="ee2rx6iv6f632_to" transform="translate(183.525505,26.310350)"><path id="ee2rx6iv6f632" d="M185.017000,21.827100L184.734000,25.252000L187.904000,26.579500L184.559000,27.368700L184.276000,30.793600L182.492000,27.856400L179.147000,28.645600L181.389000,26.041200L179.605000,23.104100L182.775000,24.431600L185.017000,21.827100Z" transform="translate(-183.525505,-26.310350)" fill="rgb(255,255,255)" stroke="none" stroke-width="1"/></g><g id="ee2rx6iv6f633_to" transform="translate(221.525505,68.310350)"><path id="ee2rx6iv6f633" d="M223.017000,63.827100L222.734000,67.252000L225.904000,68.579500L222.559000,69.368700L222.276000,72.793600L220.492000,69.856400L217.147000,70.645600L219.389000,68.041200L217.605000,65.104100L220.775000,66.431600L223.017000,63.827100Z" transform="translate(-221.525505,-68.310350)" fill="rgb(255,255,255)" stroke="none" stroke-width="1"/></g><g id="ee2rx6iv6f634_tr" transform="translate(196.642500,67.910049) rotate(0)"><path id="ee2rx6iv6f634" d="M150.017000,103.827000L149.734000,107.252000L152.904000,108.579000L149.559000,109.369000L149.276000,112.794000L147.492000,109.856000L144.147000,110.646000L146.389000,108.041000L144.605000,105.104000L147.775000,106.432000L150.017000,103.827000Z" transform="translate(-148.525505,-108.310501)" fill="rgb(255,255,255)" stroke="none" stroke-width="1"/></g><g id="ee2rx6iv6f635_to" transform="translate(196.642500,67.910049)"><path id="ee2rx6iv6f635" d="M196.875000,64.131700L197.786000,66.233800L201.478000,64.964800L198.350000,67.533000L199.262000,69.635000L196.417000,69.120200L193.289000,71.688400L194.658000,68.802000L191.813000,68.287200L195.505000,67.018100L196.875000,64.131700Z" transform="translate(-196.645500,-67.910049)" fill="rgb(255,255,255)" stroke="none" stroke-width="1"/></g><g id="ee2rx6iv6f636_to" transform="translate(176.832500,107.942501)"><path id="ee2rx6iv6f636" display="none" d="M177.596000,104.164000L178.508000,106.266000L182.200000,104.997000L179.072000,107.565000L179.984000,109.667000L177.138000,109.152000L174.010000,111.721000L175.380000,108.834000L172.535000,108.319000L176.227000,107.050000L177.596000,104.164000Z" transform="translate(-177.367500,-107.942501)" fill="rgb(255,255,255)" stroke="none" stroke-width="1"/></g><g id="ee2rx6iv6f637_tr" transform="translate(157.076004,34.085299) rotate(0)"><path id="ee2rx6iv6f637" d="M157.287000,30.607600L158.126000,32.542400L161.524000,31.374400L158.645000,33.738200L159.484000,35.673000L156.865000,35.199100L153.986000,37.563000L155.247000,34.906300L152.628000,34.432400L156.026000,33.264300L157.287000,30.607600Z" transform="translate(-157.076004,-34.085299)" fill="rgb(255,255,255)" stroke="none" stroke-width="1"/></g><g id="ee2rx6iv6f638_tr" transform="translate(214.427002,37.024250) rotate(0)"><path id="ee2rx6iv6f638" d="M214.638000,33.546600L215.477000,35.481400L218.875000,34.313300L215.996000,36.677200L216.835000,38.612000L214.216000,38.138100L211.337000,40.501900L212.598000,37.845200L209.979000,37.371400L213.377000,36.203300L214.638000,33.546600Z" transform="translate(-214.427002,-37.024250)" fill="rgb(255,255,255)" stroke="none" stroke-width="1"/></g><g id="ee2rx6iv6f639_to" transform="translate(158.447999,100.381500)"><path id="ee2rx6iv6f639" d="M159.143000,96.904000L159.982000,98.838800L163.380000,97.670800L160.501000,100.035000L161.340000,101.969000L158.721000,101.496000L155.842000,103.859000L157.103000,101.203000L154.484000,100.729000L157.882000,99.560700L159.143000,96.904000Z" transform="translate(-158.931999,-100.381500)" fill="rgb(255,255,255)" stroke="none" stroke-width="1"/></g><g id="ee2rx6iv6f640_tr" transform="translate(176.706001,47.060799) rotate(0)"><path id="ee2rx6iv6f640" d="M178.417000,41.918500L178.092000,45.846900L181.728000,47.369500L177.892000,48.274700L177.567000,52.203100L175.521000,48.834200L171.684000,49.739400L174.256000,46.752100L172.209000,43.383200L175.845000,44.905800L178.417000,41.918500Z" transform="translate(-176.706001,-47.060799)" fill="rgb(253,229,65)" stroke="none" stroke-width="1"/></g></g><g id="ee2rx6iv6f641_tr" transform="translate(178.077995,260.613007) rotate(0)"><g id="ee2rx6iv6f641" transform="translate(-178.077995,-260.613007)"><path id="ee2rx6iv6f642" d="M152.249000,236.083000C151.555000,234.274000,153.580000,232.633000,155.205000,233.688000L172.385000,244.840000C173.111000,245.312000,174.059000,245.262000,174.733000,244.717000L190.648000,231.824000C192.153000,230.605000,194.340000,232.024000,193.838000,233.896000L188.541000,253.681000C188.317000,254.518000,188.657000,255.404000,189.384000,255.875000L206.563000,267.028000C208.188000,268.082000,207.514000,270.601000,205.579000,270.702000L185.126000,271.778000C184.260000,271.823000,183.523000,272.421000,183.299000,273.258000L178.001000,293.042000C177.500000,294.914000,174.897000,295.051000,174.202000,293.242000L166.859000,274.122000C166.548000,273.313000,165.752000,272.796000,164.887000,272.842000L144.433000,273.917000C142.499000,274.019000,141.564000,271.586000,143.069000,270.366000L158.984000,257.474000C159.658000,256.928000,159.903000,256.011000,159.593000,255.203000L152.249000,236.083000Z" fill="url(#ee2rx6iv6f642-fill)" stroke="none" stroke-width="1"/><path id="ee2rx6iv6f643" d="M189.419000,265.802000C185.494000,274.382000,180.634000,281.527000,175.968000,286.147000C173.633000,288.458000,171.367000,290.118000,169.309000,291.019000C167.251000,291.919000,165.457000,292.039000,164.004000,291.374000C162.550000,290.709000,161.468000,289.274000,160.804000,287.127000C160.140000,284.981000,159.914000,282.181000,160.137000,278.904000C160.582000,272.352000,162.812000,264.004000,166.737000,255.424000C170.663000,246.844000,175.522000,239.699000,180.188000,235.079000C182.523000,232.768000,184.790000,231.108000,186.847000,230.207000C188.906000,229.307000,190.699000,229.187000,192.153000,229.852000C193.606000,230.517000,194.688000,231.952000,195.352000,234.099000C196.016000,236.245000,196.242000,239.045000,196.019000,242.322000C195.574000,248.874000,193.345000,257.222000,189.419000,265.802000Z" fill="none" stroke="rgb(246,241,255)" stroke-width="1"/><path id="ee2rx6iv6f644" d="M175.127000,279.928000C165.718000,280.630000,157.114000,279.823000,150.816000,277.965000C147.665000,277.036000,145.118000,275.851000,143.336000,274.484000C141.554000,273.116000,140.583000,271.603000,140.464000,270.009000C140.345000,268.415000,141.080000,266.774000,142.640000,265.157000C144.199000,263.540000,146.542000,261.991000,149.520000,260.604000C155.473000,257.832000,163.861000,255.756000,173.270000,255.054000C182.679000,254.351000,191.282000,255.159000,197.581000,257.017000C200.732000,257.946000,203.279000,259.130000,205.061000,260.498000C206.843000,261.866000,207.814000,263.379000,207.933000,264.973000C208.052000,266.567000,207.316000,268.207000,205.757000,269.825000C204.198000,271.442000,201.854000,272.991000,198.876000,274.378000C192.924000,277.150000,184.535000,279.226000,175.127000,279.928000Z" fill="none" stroke="rgb(246,241,255)" stroke-width="1"/><path id="ee2rx6iv6f645" d="M179.741000,258.654000C183.520000,267.299000,185.608000,275.684000,185.942000,282.242000C186.109000,285.523000,185.835000,288.319000,185.135000,290.454000C184.435000,292.588000,183.328000,294.005000,181.864000,294.646000C180.399000,295.286000,178.608000,295.136000,176.565000,294.200000C174.523000,293.265000,172.285000,291.567000,169.990000,289.216000C165.403000,284.518000,160.665000,277.291000,156.886000,268.646000C153.107000,260.001000,151.019000,251.615000,150.685000,245.057000C150.518000,241.777000,150.792000,238.981000,151.492000,236.846000C152.193000,234.711000,153.299000,233.294000,154.763000,232.654000C156.228000,232.014000,158.019000,232.164000,160.062000,233.100000C162.104000,234.035000,164.342000,235.733000,166.637000,238.084000C171.224000,242.782000,175.962000,250.009000,179.741000,258.654000Z" fill="none" stroke="rgb(246,241,255)" stroke-width="1"/></g></g><g id="ee2rx6iv6f646_tr" transform="translate(170,263.500000) rotate(0)"><g id="ee2rx6iv6f646" transform="translate(-170,-263.500000)"><circle id="ee2rx6iv6f647" r="2.500000" transform="matrix(1 0 0 1 136.50000000000000 254.50000000000000)" fill="rgb(198,164,255)" stroke="none" stroke-width="1"/><circle id="ee2rx6iv6f648" r="2.500000" transform="matrix(1 0 0 1 163.50000000000000 247.50000000000000)" fill="rgb(255,142,162)" stroke="none" stroke-width="1"/><circle id="ee2rx6iv6f649" r="2.500000" transform="matrix(1 0 0 1 151.50000000000000 285.50000000000000)" fill="rgb(255,142,162)" stroke="none" stroke-width="1"/><circle id="ee2rx6iv6f650" r="2.500000" transform="matrix(1 0 0 1 191.50000000000000 274.50000000000000)" fill="rgb(198,164,255)" stroke="none" stroke-width="1"/><circle id="ee2rx6iv6f651" r="2.500000" transform="matrix(1 0 0 1 174.50000000000000 232.50000000000000)" fill="rgb(198,164,255)" stroke="none" stroke-width="1"/><circle id="ee2rx6iv6f652" r="2.500000" transform="matrix(1 0 0 1 203.50000000000000 249.50000000000000)" fill="rgb(255,142,162)" stroke="none" stroke-width="1"/><circle id="ee2rx6iv6f653" r="2.500000" transform="matrix(1 0 0 1 189.50000000000000 294.50000000000000)" fill="rgb(255,142,162)" stroke="none" stroke-width="1"/></g></g></svg>