<svg id="ezusj3o7po8h1" xmlns="http://www.w3.org/2000/svg" xmlns:xlink="http://www.w3.org/1999/xlink" viewBox="0 0 333 428" shape-rendering="geometricPrecision" text-rendering="geometricPrecision"><style><![CDATA[#ezusj3o7po8h24_tr {animation: ezusj3o7po8h24_tr__tr 4000ms linear infinite normal forwards}@keyframes ezusj3o7po8h24_tr__tr { 0% {transform: translate(124.750000px,43.721699px) rotate(0deg)} 100% {transform: translate(124.750000px,43.721699px) rotate(360deg)} }#ezusj3o7po8h25_tr {animation: ezusj3o7po8h25_tr__tr 4000ms linear infinite normal forwards}@keyframes ezusj3o7po8h25_tr__tr { 0% {transform: translate(139.030502px,118.397499px) rotate(0deg)} 100% {transform: translate(139.030502px,118.397499px) rotate(360deg)} }#ezusj3o7po8h26_tr {animation: ezusj3o7po8h26_tr__tr 4000ms linear infinite normal forwards}@keyframes ezusj3o7po8h26_tr__tr { 0% {transform: translate(189.822998px,98.246098px) rotate(0deg)} 100% {transform: translate(189.822998px,98.246098px) rotate(360deg)} }#ezusj3o7po8h27_tr {animation: ezusj3o7po8h27_tr__tr 4000ms linear infinite normal forwards}@keyframes ezusj3o7po8h27_tr__tr { 0% {transform: translate(203.839996px,90.246048px) rotate(0deg)} 100% {transform: translate(203.839996px,90.246048px) rotate(360deg)} }#ezusj3o7po8h28_tr {animation: ezusj3o7po8h28_tr__tr 4000ms linear infinite normal forwards}@keyframes ezusj3o7po8h28_tr__tr { 0% {transform: translate(169.839996px,129.246002px) rotate(0deg)} 100% {transform: translate(169.839996px,129.246002px) rotate(360deg)} }#ezusj3o7po8h29_tr {animation: ezusj3o7po8h29_tr__tr 4000ms linear infinite normal forwards}@keyframes ezusj3o7po8h29_tr__tr { 0% {transform: translate(140.969002px,50.858700px) rotate(0deg)} 100% {transform: translate(140.969002px,50.858700px) rotate(360deg)} }#ezusj3o7po8h30_tr {animation: ezusj3o7po8h30_tr__tr 4000ms linear infinite normal forwards}@keyframes ezusj3o7po8h30_tr__tr { 0% {transform: translate(194.275505px,30.700500px) rotate(0deg)} 100% {transform: translate(194.275505px,30.700500px) rotate(360deg)} }#ezusj3o7po8h31_tr {animation: ezusj3o7po8h31_tr__tr 4000ms linear infinite normal forwards}@keyframes ezusj3o7po8h31_tr__tr { 0% {transform: translate(159.275505px,102.700649px) rotate(0deg)} 100% {transform: translate(159.275505px,102.700649px) rotate(360deg)} }#ezusj3o7po8h32_tr {animation: ezusj3o7po8h32_tr__tr 4000ms linear infinite normal forwards}@keyframes ezusj3o7po8h32_tr__tr { 0% {transform: translate(207.395500px,62.300200px) rotate(0deg)} 100% {transform: translate(207.395500px,62.300200px) rotate(360deg)} }#ezusj3o7po8h33_tr {animation: ezusj3o7po8h33_tr__tr 4000ms linear infinite normal forwards}@keyframes ezusj3o7po8h33_tr__tr { 0% {transform: translate(188.117500px,102.332550px) rotate(0deg)} 100% {transform: translate(188.117500px,102.332550px) rotate(360deg)} }#ezusj3o7po8h34_tr {animation: ezusj3o7po8h34_tr__tr 4000ms linear infinite normal forwards}@keyframes ezusj3o7po8h34_tr__tr { 0% {transform: translate(132.587997px,73.531097px) rotate(0deg)} 100% {transform: translate(132.587997px,73.531097px) rotate(360deg)} }#ezusj3o7po8h35_tr {animation: ezusj3o7po8h35_tr__tr 4000ms linear infinite normal forwards}@keyframes ezusj3o7po8h35_tr__tr { 0% {transform: translate(167.826004px,38.475449px) rotate(0deg)} 100% {transform: translate(167.826004px,38.475449px) rotate(360deg)} }#ezusj3o7po8h36_tr {animation: ezusj3o7po8h36_tr__tr 4000ms linear infinite normal forwards}@keyframes ezusj3o7po8h36_tr__tr { 0% {transform: translate(169.681999px,94.771847px) rotate(0deg)} 100% {transform: translate(169.681999px,94.771847px) rotate(360deg)} }#ezusj3o7po8h37_tr {animation: ezusj3o7po8h37_tr__tr 4000ms linear infinite normal forwards}@keyframes ezusj3o7po8h37_tr__tr { 0% {transform: translate(187.456001px,51.450901px) rotate(0deg)} 100% {transform: translate(187.456001px,51.450901px) rotate(360deg)} }#ezusj3o7po8h38_tr {animation: ezusj3o7po8h38_tr__tr 4000ms linear infinite normal forwards}@keyframes ezusj3o7po8h38_tr__tr { 0% {transform: translate(165.814003px,65.309402px) rotate(0deg)} 100% {transform: translate(165.814003px,65.309402px) rotate(360deg)} }#ezusj3o7po8h39_tr {animation: ezusj3o7po8h39_tr__tr 4000ms linear infinite normal forwards}@keyframes ezusj3o7po8h39_tr__tr { 0% {transform: translate(167.924500px,88.761497px) rotate(0deg)} 100% {transform: translate(167.924500px,88.761497px) rotate(360deg)} }#ezusj3o7po8h40_tr {animation: ezusj3o7po8h40_tr__tr 4000ms linear infinite normal forwards}@keyframes ezusj3o7po8h40_tr__tr { 0% {transform: translate(160.826004px,57.475449px) rotate(0deg)} 100% {transform: translate(160.826004px,57.475449px) rotate(360deg)} }#ezusj3o7po8h41_tr {animation: ezusj3o7po8h41_tr__tr 4000ms linear infinite normal forwards}@keyframes ezusj3o7po8h41_tr__tr { 0% {transform: translate(167.190994px,79.658401px) rotate(0deg)} 100% {transform: translate(167.190994px,79.658401px) rotate(360deg)} }#ezusj3o7po8h46_tr {animation: ezusj3o7po8h46_tr__tr 4000ms linear infinite normal forwards}@keyframes ezusj3o7po8h46_tr__tr { 0% {transform: translate(166.250000px,77.649702px) rotate(0deg)} 100% {transform: translate(166.250000px,77.649702px) rotate(720deg)} }]]></style><defs><filter id="ezusj3o7po8h2-filter" x="-400%" width="600%" y="-400%" height="600%"><feGaussianBlur id="ezusj3o7po8h2-filter-drop-shadow-0-blur" in="SourceAlpha" stdDeviation="15,15"/><feOffset id="ezusj3o7po8h2-filter-drop-shadow-0-offset" dx="0" dy="4" result="tmp"/><feFlood id="ezusj3o7po8h2-filter-drop-shadow-0-flood" flood-color="rgba(130,21,139,0.25)"/><feComposite id="ezusj3o7po8h2-filter-drop-shadow-0-composite" operator="in" in2="tmp"/><feMerge id="ezusj3o7po8h2-filter-drop-shadow-0-merge"><feMergeNode id="ezusj3o7po8h2-filter-drop-shadow-0-merge-node-1"/><feMergeNode id="ezusj3o7po8h2-filter-drop-shadow-0-merge-node-2" in="SourceGraphic"/></feMerge></filter><linearGradient id="ezusj3o7po8h6-fill" x1="122.750000" y1="88.761900" x2="168.748000" y2="161.664000" spreadMethod="pad" gradientUnits="userSpaceOnUse"><stop id="ezusj3o7po8h6-fill-0" offset="0%" stop-color="rgb(39,22,72)"/><stop id="ezusj3o7po8h6-fill-1" offset="28.645800%" stop-color="rgb(39,22,72)"/><stop id="ezusj3o7po8h6-fill-2" offset="53.125000%" stop-color="rgba(53,31,98,0.92)"/><stop id="ezusj3o7po8h6-fill-3" offset="78.645800%" stop-color="rgba(57,36,98,0.94)"/><stop id="ezusj3o7po8h6-fill-4" offset="84.895800%" stop-color="rgba(63,42,104,0.87)"/><stop id="ezusj3o7po8h6-fill-5" offset="100%" stop-color="rgba(39,22,72,0.64)"/></linearGradient><linearGradient id="ezusj3o7po8h9-fill" x1="99.920200" y1="221.522000" x2="29.914800" y2="333.003000" spreadMethod="pad" gradientUnits="userSpaceOnUse"><stop id="ezusj3o7po8h9-fill-0" offset="0%" stop-color="rgb(39,22,72)"/><stop id="ezusj3o7po8h9-fill-1" offset="28.645800%" stop-color="rgb(39,22,72)"/><stop id="ezusj3o7po8h9-fill-2" offset="53.125000%" stop-color="rgba(53,31,98,0.92)"/><stop id="ezusj3o7po8h9-fill-3" offset="78.645800%" stop-color="rgba(57,36,98,0.94)"/><stop id="ezusj3o7po8h9-fill-4" offset="84.895800%" stop-color="rgba(63,42,104,0.87)"/><stop id="ezusj3o7po8h9-fill-5" offset="100%" stop-color="rgba(39,22,72,0.64)"/></linearGradient><linearGradient id="ezusj3o7po8h14-fill" x1="189.262000" y1="239.285000" x2="258.150000" y2="349.251000" spreadMethod="pad" gradientUnits="userSpaceOnUse"><stop id="ezusj3o7po8h14-fill-0" offset="0%" stop-color="rgb(39,22,72)"/><stop id="ezusj3o7po8h14-fill-1" offset="28.645800%" stop-color="rgb(39,22,72)"/><stop id="ezusj3o7po8h14-fill-2" offset="53.125000%" stop-color="rgba(53,31,98,0.92)"/><stop id="ezusj3o7po8h14-fill-3" offset="78.645800%" stop-color="rgba(57,36,98,0.94)"/><stop id="ezusj3o7po8h14-fill-4" offset="84.895800%" stop-color="rgba(63,42,104,0.87)"/><stop id="ezusj3o7po8h14-fill-5" offset="100%" stop-color="rgba(39,22,72,0.64)"/></linearGradient><linearGradient id="ezusj3o7po8h17-fill" x1="188.750000" y1="148.881000" x2="211.867000" y2="185.519000" spreadMethod="pad" gradientUnits="userSpaceOnUse"><stop id="ezusj3o7po8h17-fill-0" offset="0%" stop-color="rgb(39,22,72)"/><stop id="ezusj3o7po8h17-fill-1" offset="28.645800%" stop-color="rgb(39,22,72)"/><stop id="ezusj3o7po8h17-fill-2" offset="53.125000%" stop-color="rgba(53,31,98,0.92)"/><stop id="ezusj3o7po8h17-fill-3" offset="78.645800%" stop-color="rgba(57,36,98,0.94)"/><stop id="ezusj3o7po8h17-fill-4" offset="84.895800%" stop-color="rgba(63,42,104,0.87)"/><stop id="ezusj3o7po8h17-fill-5" offset="100%" stop-color="rgba(39,22,72,0.64)"/></linearGradient><linearGradient id="ezusj3o7po8h22-fill" x1="271.250000" y1="10" x2="269.474000" y2="171.786000" spreadMethod="pad" gradientUnits="userSpaceOnUse"><stop id="ezusj3o7po8h22-fill-0" offset="0%" stop-color="rgba(255,140,90,0.01)"/><stop id="ezusj3o7po8h22-fill-1" offset="67.187500%" stop-color="rgba(233,199,82,0.6)"/><stop id="ezusj3o7po8h22-fill-2" offset="100%" stop-color="rgba(214,197,53,0.9)"/></linearGradient></defs><g id="ezusj3o7po8h2" filter="url(#ezusj3o7po8h2-filter)"><rect id="ezusj3o7po8h3" width="52.479000" height="52.483200" rx="0" ry="0" transform="matrix(0.85453300000000 -0.51939700000000 0.84713900000000 0.53137200000000 164.96700000000001 259.64400000000001)" fill="rgb(255,255,255)" stroke="none" stroke-width="1"/><path id="ezusj3o7po8h4" d="M210.749000,232L254.749000,204L298.749000,232L254.749000,260L210.749000,232Z" fill="rgb(255,255,255)" stroke="none" stroke-width="1"/><path id="ezusj3o7po8h5" d="M34.748500,232L78.748900,204L122.749000,232L78.748700,260L34.748500,232Z" fill="rgb(255,255,255)" stroke="none" stroke-width="1"/><path id="ezusj3o7po8h6" d="M166.750000,61L78.750100,116.970000L78.750100,218.448000L166.750000,162.478000L166.750000,61Z" fill="url(#ezusj3o7po8h6-fill)" stroke="none" stroke-width="1"/><path id="ezusj3o7po8h7" d="M166.750000,61L254.750000,116.970000L254.750000,218.448000L166.750000,162.478000L166.750000,61Z" fill="rgb(218,209,233)" stroke="none" stroke-width="1"/><path id="ezusj3o7po8h8" d="M78.748500,311L122.749000,283L166.749000,311L122.749000,339L78.748500,311Z" fill="rgb(255,255,255)" stroke="none" stroke-width="1"/><path id="ezusj3o7po8h9" d="M78.750000,209L122.750000,237L122.750000,390L78.750000,362.140000L78.750000,311L34.750000,283L34.750000,232L78.750000,259.972000L78.750000,209Z" clip-rule="evenodd" fill="url(#ezusj3o7po8h9-fill)" fill-rule="evenodd" stroke="none" stroke-width="1"/><path id="ezusj3o7po8h10" d="M166.750000,311L210.750000,338.986000L210.750000,389.986000L166.750000,362L166.750000,311Z" fill="rgb(218,209,233)" stroke="none" stroke-width="1"/><path id="ezusj3o7po8h11" d="M166.750000,311L122.750000,338.986000L122.750000,389.986000L166.750000,362L166.750000,311Z" fill="rgb(196,189,208)" stroke="none" stroke-width="1"/><path id="ezusj3o7po8h12" d="M166.749000,311L210.749000,283L254.749000,311L210.749000,339L166.749000,311Z" fill="rgb(255,255,255)" stroke="none" stroke-width="1"/><path id="ezusj3o7po8h13" d="M122.750000,288L166.750000,315.986000L166.750000,366.986000L122.750000,339L122.750000,288Z" fill="rgb(218,209,233)" stroke="none" stroke-width="1"/><path id="ezusj3o7po8h14" d="M254.750000,209L210.750000,236.986000L210.750000,287.986000L210.750000,288L166.750000,315.986000L166.750000,366.986000L210.750000,339L210.750000,389.986000L254.750000,362L254.750000,311L254.750000,310.986000L298.750000,283L298.750000,232L254.750000,259.986000L254.750000,209Z" clip-rule="evenodd" fill="url(#ezusj3o7po8h14-fill)" fill-rule="evenodd" stroke="none" stroke-width="1"/><path id="ezusj3o7po8h15" d="M166.750000,209L122.750000,236.986000L122.750000,287.986000L166.750000,260L166.750000,209Z" fill="rgb(218,209,233)" stroke="none" stroke-width="1"/><path id="ezusj3o7po8h16" d="M122.750000,135L166.750000,162.986000L166.750000,213.986000L122.750000,186L122.750000,135Z" fill="rgb(218,209,233)" stroke="none" stroke-width="1"/><path id="ezusj3o7po8h17" d="M210.750000,135L166.750000,162.986000L166.750000,213.986000L210.750000,186L210.750000,135Z" fill="url(#ezusj3o7po8h17-fill)" stroke="none" stroke-width="1"/><path id="ezusj3o7po8h18" d="M122.750000,288L166.750000,260L210.750000,288L166.750000,316L122.750000,288Z" fill="rgb(255,255,255)" stroke="none" stroke-width="1"/><path id="ezusj3o7po8h19" d="M166.750000,209L210.750000,236.986000L210.750000,287.986000L166.750000,260L166.750000,209Z" fill="rgb(218,209,233)" stroke="none" stroke-width="1"/><path id="ezusj3o7po8h20" d="M78.748500,209L122.749000,181L166.749000,209L122.749000,237L78.748500,209Z" fill="rgb(255,255,255)" stroke="none" stroke-width="1"/><path id="ezusj3o7po8h21" d="M166.749000,209L210.749000,181L254.749000,209L210.749000,237L166.749000,209Z" fill="rgb(255,255,255)" stroke="none" stroke-width="1"/></g><path id="ezusj3o7po8h22" d="M122.750000,0L122.750000,135L166.750000,163L210.750000,135L210.750000,0L122.750000,0Z" clip-rule="evenodd" fill="url(#ezusj3o7po8h22-fill)" fill-rule="evenodd" stroke="none" stroke-width="1"/><g id="ezusj3o7po8h23"><g id="ezusj3o7po8h24_tr" transform="translate(124.750000,43.721699) rotate(0)"><path id="ezusj3o7po8h24" d="M124.750000,37.390100L126.322000,42.227000L131.407000,42.227000L127.293000,45.216400L128.864000,50.053300L124.750000,47.063900L120.636000,50.053300L122.207000,45.216400L118.093000,42.227000L123.178000,42.227000L124.750000,37.390100Z" transform="translate(-124.750000,-43.721699)" fill="rgb(253,229,65)" stroke="none" stroke-width="1"/></g><g id="ezusj3o7po8h25_tr" transform="translate(139.030502,118.397499) rotate(0)"><path id="ezusj3o7po8h25" d="M140.923000,112.709000L140.563000,117.054000L144.586000,118.739000L140.342000,119.740000L139.982000,124.086000L137.719000,120.359000L133.475000,121.360000L136.320000,118.056000L134.056000,114.329000L138.078000,116.013000L140.923000,112.709000Z" transform="translate(-139.030502,-118.397499)" fill="rgb(253,229,65)" stroke="none" stroke-width="1"/></g><g id="ezusj3o7po8h26_tr" transform="translate(189.822998,98.246098) rotate(0)"><path id="ezusj3o7po8h26" d="M191.443000,93.375200L191.136000,97.096200L194.580000,98.538500L190.946000,99.395900L190.638000,103.117000L188.700000,99.925800L185.066000,100.783000L187.502000,97.953600L185.563000,94.762600L189.007000,96.204800L191.443000,93.375200Z" transform="translate(-189.822998,-98.246098)" fill="rgb(253,229,65)" stroke="none" stroke-width="1"/></g><g id="ezusj3o7po8h27_tr" transform="translate(203.839996,90.246048) rotate(0)"><path id="ezusj3o7po8h27" d="M205.460000,85.375200L205.153000,89.096200L208.597000,90.538500L204.963000,91.395900L204.655000,95.116900L202.717000,91.925800L199.083000,92.783300L201.519000,89.953600L199.581000,86.762600L203.024000,88.204800L205.460000,85.375200Z" transform="translate(-203.839996,-90.246048)" fill="rgb(255,255,255)" stroke="none" stroke-width="1"/></g><g id="ezusj3o7po8h28_tr" transform="translate(169.839996,129.246002) rotate(0)"><path id="ezusj3o7po8h28" d="M171.460000,124.375000L171.153000,128.096000L174.597000,129.538000L170.963000,130.396000L170.655000,134.117000L168.717000,130.926000L165.083000,131.783000L167.519000,128.954000L165.581000,125.763000L169.024000,127.205000L171.460000,124.375000Z" transform="translate(-169.839996,-129.246002)" fill="rgb(255,255,255)" stroke="none" stroke-width="1"/></g><g id="ezusj3o7po8h29_tr" transform="translate(140.969002,50.858700) rotate(0)"><path id="ezusj3o7po8h29" d="M142.461000,46.375500L142.178000,49.800300L145.347000,51.127800L142.003000,51.917000L141.720000,55.341900L139.935000,52.404800L136.591000,53.194000L138.833000,50.589500L137.049000,47.652400L140.218000,48.979900L142.461000,46.375500Z" transform="translate(-140.969002,-50.858700)" fill="rgb(255,255,255)" stroke="none" stroke-width="1"/></g><g id="ezusj3o7po8h30_tr" transform="translate(194.275505,30.700500) rotate(0)"><path id="ezusj3o7po8h30" d="M195.767000,26.217300L195.484000,29.642100L198.654000,30.969600L195.309000,31.758800L195.026000,35.183700L193.242000,32.246600L189.897000,33.035800L192.139000,30.431300L190.355000,27.494200L193.525000,28.821700L195.767000,26.217300Z" transform="translate(-194.275505,-30.700500)" fill="rgb(255,255,255)" stroke="none" stroke-width="1"/></g><g id="ezusj3o7po8h31_tr" transform="translate(159.275505,102.700649) rotate(0)"><path id="ezusj3o7po8h31" d="M160.767000,98.217300L160.484000,101.642000L163.654000,102.970000L160.309000,103.759000L160.026000,107.184000L158.242000,104.247000L154.897000,105.036000L157.139000,102.431000L155.355000,99.494200L158.525000,100.822000L160.767000,98.217300Z" transform="translate(-159.275505,-102.700649)" fill="rgb(255,255,255)" stroke="none" stroke-width="1"/></g><g id="ezusj3o7po8h32_tr" transform="translate(207.395500,62.300200) rotate(0)"><path id="ezusj3o7po8h32" d="M207.625000,58.521900L208.536000,60.623900L212.228000,59.354900L209.100000,61.923100L210.012000,64.025200L207.167000,63.510300L204.039000,66.078500L205.408000,63.192100L202.563000,62.677300L206.255000,61.408300L207.625000,58.521900Z" transform="translate(-207.395500,-62.300200)" fill="rgb(255,255,255)" stroke="none" stroke-width="1"/></g><g id="ezusj3o7po8h33_tr" transform="translate(188.117500,102.332550) rotate(0)"><path id="ezusj3o7po8h33" d="M188.346000,98.554100L189.258000,100.656000L192.950000,99.387100L189.822000,101.955000L190.734000,104.057000L187.888000,103.543000L184.760000,106.111000L186.130000,103.224000L183.285000,102.710000L186.977000,101.440000L188.346000,98.554100Z" transform="translate(-188.117500,-102.332550)" fill="rgb(255,255,255)" stroke="none" stroke-width="1"/></g><g id="ezusj3o7po8h34_tr" transform="translate(132.587997,73.531097) rotate(0)"><path id="ezusj3o7po8h34" d="M132.799000,70.053400L133.638000,71.988200L137.036000,70.820200L134.157000,73.184000L134.996000,75.118800L132.377000,74.644900L129.498000,77.008800L130.759000,74.352100L128.140000,73.878200L131.538000,72.710100L132.799000,70.053400Z" transform="translate(-132.587997,-73.531097)" fill="rgb(255,255,255)" stroke="none" stroke-width="1"/></g><g id="ezusj3o7po8h35_tr" transform="translate(167.826004,38.475449) rotate(0)"><path id="ezusj3o7po8h35" d="M168.037000,34.997800L168.876000,36.932600L172.274000,35.764500L169.395000,38.128300L170.234000,40.063100L167.615000,39.589300L164.736000,41.953100L165.997000,39.296400L163.378000,38.822500L166.776000,37.654500L168.037000,34.997800Z" transform="translate(-167.826004,-38.475449)" fill="rgb(255,255,255)" stroke="none" stroke-width="1"/></g><g id="ezusj3o7po8h36_tr" transform="translate(169.681999,94.771847) rotate(0)"><path id="ezusj3o7po8h36" d="M169.893000,91.294200L170.732000,93.229000L174.130000,92.060900L171.251000,94.424700L172.090000,96.359500L169.471000,95.885700L166.592000,98.249500L167.853000,95.592800L165.234000,95.118900L168.632000,93.950900L169.893000,91.294200Z" transform="translate(-169.681999,-94.771847)" fill="rgb(255,255,255)" stroke="none" stroke-width="1"/></g><g id="ezusj3o7po8h37_tr" transform="translate(187.456001,51.450901) rotate(0)"><path id="ezusj3o7po8h37" d="M189.167000,46.308600L188.842000,50.237000L192.478000,51.759600L188.642000,52.664800L188.317000,56.593200L186.271000,53.224300L182.434000,54.129500L185.006000,51.142200L182.959000,47.773300L186.595000,49.295900L189.167000,46.308600Z" transform="translate(-187.456001,-51.450901)" fill="rgb(253,229,65)" stroke="none" stroke-width="1"/></g><g id="ezusj3o7po8h38_tr" transform="translate(165.814003,65.309402) rotate(0)"><path id="ezusj3o7po8h38" d="M167.509000,60.215300L167.187000,64.106800L170.789000,65.615200L166.988000,66.511900L166.667000,70.403500L164.640000,67.066100L160.839000,67.962900L163.387000,65.003500L161.359000,61.666200L164.961000,63.174600L167.509000,60.215300Z" transform="translate(-165.814003,-65.309402)" fill="rgb(253,229,65)" stroke="none" stroke-width="1"/></g><g id="ezusj3o7po8h39_tr" transform="translate(167.924500,88.761497) rotate(0)"><path id="ezusj3o7po8h39" d="M169.416000,84.278300L169.133000,87.703200L172.303000,89.030700L168.958000,89.819900L168.675000,93.244700L166.891000,90.307600L163.546000,91.096800L165.788000,88.492400L164.004000,85.555300L167.174000,86.882700L169.416000,84.278300Z" transform="translate(-167.924500,-88.761497)" fill="rgb(255,255,255)" stroke="none" stroke-width="1"/></g><g id="ezusj3o7po8h40_tr" transform="translate(160.826004,57.475449) rotate(0)"><path id="ezusj3o7po8h40" d="M161.037000,53.997800L161.876000,55.932600L165.274000,54.764500L162.395000,57.128300L163.234000,59.063100L160.615000,58.589300L157.736000,60.953100L158.997000,58.296400L156.378000,57.822500L159.776000,56.654500L161.037000,53.997800Z" transform="translate(-160.826004,-57.475449)" fill="rgb(255,255,255)" stroke="none" stroke-width="1"/></g></g><g id="ezusj3o7po8h41_tr" transform="translate(167.190994,79.658401) rotate(0)"><g id="ezusj3o7po8h41" transform="translate(-167.190994,-79.658401)"><path id="ezusj3o7po8h42" d="M176.765000,79.658100C176.765000,86.746700,175.644000,93.141300,173.849000,97.745600C172.950000,100.049000,171.893000,101.879000,170.745000,103.125000C169.597000,104.371000,168.396000,104.995000,167.192000,104.995000C165.987000,104.995000,164.786000,104.371000,163.638000,103.125000C162.490000,101.879000,161.433000,100.049000,160.534000,97.745600C158.739000,93.141300,157.618000,86.746700,157.618000,79.658100C157.618000,72.569600,158.739000,66.174900,160.534000,61.570700C161.433000,59.267000,162.490000,57.436800,163.638000,56.191000C164.786000,54.945700,165.987000,54.321800,167.192000,54.321800C168.396000,54.321800,169.597000,54.945700,170.745000,56.191000C171.893000,57.436800,172.950000,59.267000,173.849000,61.570700C175.644000,66.174900,176.765000,72.569600,176.765000,79.658100Z" fill="rgb(196,196,196)" fill-opacity="0.01" stroke="rgb(253,218,96)" stroke-width="1"/><path id="ezusj3o7po8h43" d="M167.145000,89.231300C160.056000,89.197000,153.667000,88.044900,149.072000,86.227400C146.773000,85.318100,144.947000,84.252100,143.707000,83.097700C142.468000,81.943700,141.849000,80.739400,141.855000,79.535300C141.861000,78.331100,142.491000,77.132900,143.742000,75.991000C144.993000,74.848700,146.828000,73.800400,149.136000,72.913400C153.749000,71.140600,160.149000,70.050400,167.238000,70.084800C174.326000,70.119100,180.715000,71.271200,185.311000,73.088600C187.610000,73.998000,189.435000,75.064000,190.675000,76.218400C191.915000,77.372400,192.533000,78.576700,192.527000,79.780800C192.522000,80.984900,191.892000,82.183200,190.641000,83.325100C189.390000,84.467400,187.554000,85.515700,185.246000,86.402700C180.633000,88.175500,174.233000,89.265700,167.145000,89.231300Z" fill="rgb(196,196,196)" fill-opacity="0.01" stroke="rgb(253,218,96)" stroke-width="1"/><path id="ezusj3o7po8h44" d="M173.196000,87.115100C167.674000,91.560700,161.991000,94.698000,157.278000,96.187400C154.921000,96.932600,152.832000,97.257000,151.142000,97.143900C149.452000,97.030700,148.212000,96.486400,147.457000,95.548500C146.702000,94.610600,146.435000,93.283600,146.685000,91.608500C146.935000,89.932700,147.697000,87.961400,148.928000,85.817100C151.389000,81.531300,155.666000,76.647500,161.187000,72.201900C166.709000,67.756300,172.393000,64.619000,177.105000,63.129600C179.462000,62.384400,181.551000,62.060000,183.241000,62.173100C184.931000,62.286200,186.171000,62.830600,186.926000,63.768500C187.681000,64.706400,187.948000,66.033400,187.698000,67.708500C187.448000,69.384300,186.686000,71.355600,185.455000,73.499900C182.994000,77.785700,178.717000,82.669500,173.196000,87.115100Z" fill="rgb(196,196,196)" fill-opacity="0.01" stroke="rgb(253,218,96)" stroke-width="1"/><path id="ezusj3o7po8h45" d="M174.808000,73.858900C179.102000,79.498600,182.084000,85.265600,183.445000,90.016300C184.126000,92.393300,184.394000,94.489900,184.235000,96.176700C184.076000,97.862900,183.498000,99.087100,182.540000,99.816600C181.582000,100.546000,180.248000,100.777000,178.580000,100.482000C176.912000,100.186000,174.962000,99.370700,172.852000,98.081900C168.635000,95.506200,163.869000,91.097600,159.575000,85.457800C155.280000,79.818000,152.299000,74.051000,150.938000,69.300300C150.257000,66.923300,149.989000,64.826700,150.148000,63.139900C150.307000,61.453700,150.885000,60.229500,151.843000,59.500100C152.801000,58.770600,154.135000,58.539300,155.802000,58.834700C157.471000,59.130200,159.421000,59.945900,161.531000,61.234700C165.748000,63.810400,170.514000,68.219100,174.808000,73.858900Z" fill="rgb(196,196,196)" fill-opacity="0.01" stroke="rgb(253,218,96)" stroke-width="1"/></g></g><g id="ezusj3o7po8h46_tr" transform="translate(166.250000,77.649702) rotate(0)"><g id="ezusj3o7po8h46" transform="translate(-166.250000,-77.649702)"><circle id="ezusj3o7po8h47" r="0.839449" transform="matrix(1 0 0 1 158.78899999999999 52.83940000000000)" fill="rgb(253,218,96)" stroke="none" stroke-width="1"/><circle id="ezusj3o7po8h48" r="0.839449" transform="matrix(1 0 0 1 176.88300000000001 52.83940000000000)" fill="rgb(253,218,96)" stroke="none" stroke-width="1"/><circle id="ezusj3o7po8h49" r="0.839449" transform="matrix(1 0 0 1 166.80900000000000 79.14220000000000)" fill="rgb(253,218,96)" stroke="none" stroke-width="1"/><circle id="ezusj3o7po8h50" r="0.839449" transform="matrix(1 0 0 1 158.78899999999999 102.45999999999999)" fill="rgb(253,218,96)" stroke="none" stroke-width="1"/><circle id="ezusj3o7po8h51" r="0.839449" transform="matrix(1 0 0 1 136.58900000000000 79.14220000000000)" fill="rgb(253,218,96)" stroke="none" stroke-width="1"/><circle id="ezusj3o7po8h52" r="0.839449" transform="matrix(1 0 0 1 195.91100000000000 79.14220000000000)" fill="rgb(253,218,96)" stroke="none" stroke-width="1"/><circle id="ezusj3o7po8h53" r="0.839449" transform="matrix(1 0 0 1 176.88300000000001 102.45999999999999)" fill="rgb(253,218,96)" stroke="none" stroke-width="1"/></g></g></svg>