<svg width="116" height="116" viewBox="0 0 116 116" fill="none" xmlns="http://www.w3.org/2000/svg">
<path d="M57.8711 31.8808L75.9676 21.2539V84.1193L57.8711 94.7462V31.8808Z" fill="#287ABD"/>
<path d="M57.8719 94.7462L39.7745 84.1193V21.2539L57.8719 31.8808V94.7462Z" fill="#4EA9E4"/>
<path d="M94.0623 94.7462L75.9675 84.1193V21.2539L94.0623 31.8808V94.7462Z" fill="#F7BA4B"/>
<path d="M21.6805 31.8823V31.8808V94.7462L39.7753 84.1193V21.2539L21.6805 31.8808V31.8823Z" fill="#F7BA4B"/>
<path d="M3.58493 21.2549V84.1202L21.6806 94.7472V31.8818L3.58493 21.2549Z" fill="#4EA9E4"/>
<path d="M75.9683 84.1191L94.0623 94.7461L57.8727 116L21.6814 94.7461L39.7745 84.1191L57.871 94.7461L75.9683 84.1191Z" fill="#EDB55B"/>
<path d="M112.159 21.2539V84.1193L94.0632 94.7462V31.8808L112.159 21.2539Z" fill="#287ABD"/>
<path d="M75.9676 21.2541L57.8706 31.8808L39.7745 21.2541L21.6806 31.8808L3.58493 21.2539L39.7745 0L57.8706 10.6269L75.9676 0L112.159 21.2539L94.0615 31.8808L75.9676 21.2541Z" fill="#3490CD"/>
</svg>